DroidDevanagariRegular-Bold.ufo
<glyph name="candraBindu-deva" format="1">
  <advance width="0"/>
  <unicode hex="0901"/>
  <outline>
    <contour>
      <point x="-667" y="1911"/>
      <point x="-693" y="1893"/>
      <point x="-693" y="1828" type="curve" smooth="yes"/>
      <point x="-693" y="1685"/>
      <point x="-569" y="1446"/>
      <point x="-308" y="1446" type="curve" smooth="yes"/>
      <point x="-120" y="1446"/>
      <point x="5" y="1569"/>
      <point x="5" y="1722" type="curve"/>
      <point x="5" y="1814"/>
      <point x="-39" y="1873"/>
      <point x="-130" y="1906" type="curve"/>
      <point x="-152" y="1716"/>
      <point x="-235" y="1629"/>
      <point x="-360" y="1629" type="curve" smooth="yes"/>
      <point x="-487" y="1629"/>
      <point x="-569" y="1719"/>
      <point x="-624" y="1924" type="curve"/>
    </contour>
    <contour>
      <point x="-435" y="1966"/>
      <point x="-490" y="1912"/>
      <point x="-490" y="1846" type="curve" smooth="yes"/>
      <point x="-490" y="1780"/>
      <point x="-435" y="1725"/>
      <point x="-368" y="1725" type="curve" smooth="yes"/>
      <point x="-302" y="1725"/>
      <point x="-248" y="1780"/>
      <point x="-248" y="1846" type="curve" smooth="yes"/>
      <point x="-248" y="1912"/>
      <point x="-302" y="1966"/>
      <point x="-368" y="1966" type="curve" smooth="yes"/>
    </contour>
  </outline>
</glyph>
<glyph name="visarga-deva" format="1">
  <advance width="653"/>
  <unicode hex="0903"/>
  <outline>
    <contour>
      <point x="378" y="750"/>
      <point x="444" y="815"/>
      <point x="444" y="894" type="curve" smooth="yes"/>
      <point x="444" y="974"/>
      <point x="378" y="1039"/>
      <point x="299" y="1039" type="curve" smooth="yes"/>
      <point x="219" y="1039"/>
      <point x="155" y="974"/>
      <point x="155" y="894" type="curve" smooth="yes"/>
      <point x="155" y="815"/>
      <point x="219" y="750"/>
      <point x="299" y="750" type="curve" smooth="yes"/>
    </contour>
    <contour>
      <point x="378" y="104"/>
      <point x="444" y="169"/>
      <point x="444" y="248" type="curve" smooth="yes"/>
      <point x="444" y="328"/>
      <point x="378" y="392"/>
      <point x="299" y="392" type="curve" smooth="yes"/>
      <point x="219" y="392"/>
      <point x="155" y="328"/>
      <point x="155" y="248" type="curve" smooth="yes"/>
      <point x="155" y="169"/>
      <point x="219" y="104"/>
      <point x="299" y="104" type="curve" smooth="yes"/>
    </contour>
  </outline>
</glyph>
<glyph name="aShort-deva" format="1">
  <advance width="1610"/>
  <unicode hex="0904"/>
  <outline>
    <contour>
      <point x="310" y="1922"/>
      <point x="300" y="1896"/>
      <point x="300" y="1852" type="curve"/>
      <point x="300" y="1687"/>
      <point x="492" y="1521"/>
      <point x="975" y="1494" type="curve" smooth="yes"/>
      <point x="1162" y="1482"/>
      <point x="1208" y="1461"/>
      <point x="1208" y="1403" type="curve" smooth="yes"/>
      <point x="1208" y="1378"/>
      <point x="1200" y="1339"/>
      <point x="1181" y="1301" type="curve"/>
      <point x="1417" y="1301" type="line"/>
      <point x="1337" y="1548"/>
      <point x="1171" y="1694"/>
      <point x="874" y="1740" type="curve" smooth="yes"/>
      <point x="532" y="1791"/>
      <point x="427" y="1834"/>
      <point x="338" y="1956" type="curve"/>
    </contour>
    <component base="a-deva"/>
  </outline>
</glyph>
<glyph name="a-deva" format="1">
  <advance width="1610"/>
  <unicode hex="0905"/>
  <outline>
    <contour>
      <point x="1610" y="1330" type="line"/>
      <point x="1670" y="1137" type="line"/>
      <point x="1019" y="1137" type="line"/>
      <point x="959" y="1330" type="line"/>
    </contour>
    <contour>
      <point x="1422" y="1243" type="line"/>
      <point x="1422" y="-61" type="line"/>
      <point x="1182" y="-21" type="line"/>
      <point x="1182" y="1243" type="line"/>
    </contour>
    <contour>
      <point x="821" y="725"/>
      <point x="893" y="706"/>
      <point x="957" y="706" type="curve" smooth="yes"/>
      <point x="1084" y="706"/>
      <point x="1182" y="780"/>
      <point x="1182" y="917" type="curve"/>
      <point x="1355" y="628" type="line"/>
      <point x="1293" y="542"/>
      <point x="1197" y="507"/>
      <point x="1107" y="507" type="curve" smooth="yes"/>
      <point x="978" y="507"/>
      <point x="848" y="580"/>
      <point x="738" y="695" type="curve"/>
      <point x="751" y="765" type="line"/>
    </contour>
    <contour>
      <point x="377" y="798" type="line"/>
      <point x="623" y="809"/>
      <point x="726" y="901"/>
      <point x="726" y="1036" type="curve" smooth="yes"/>
      <point x="726" y="1134"/>
      <point x="672" y="1184"/>
      <point x="585" y="1184" type="curve" smooth="yes"/>
      <point x="460" y="1184"/>
      <point x="383" y="1082"/>
      <point x="383" y="947" type="curve"/>
      <point x="245" y="947"/>
      <point x="157" y="1011"/>
      <point x="157" y="1107" type="curve"/>
      <point x="157" y="1219"/>
      <point x="272" y="1335"/>
      <point x="482" y="1335" type="curve" smooth="yes"/>
      <point x="753" y="1335"/>
      <point x="942" y="1143"/>
      <point x="942" y="906" type="curve" smooth="yes"/>
      <point x="942" y="706"/>
      <point x="807" y="599"/>
      <point x="493" y="562" type="curve"/>
    </contour>
    <contour>
      <point x="727" y="764" type="line"/>
      <point x="896" y="668"/>
      <point x="1012" y="507"/>
      <point x="1012" y="320" type="curve"/>
      <point x="1012" y="138"/>
      <point x="873" y="2"/>
      <point x="677" y="2" type="curve"/>
      <point x="256" y="2"/>
      <point x="80" y="473"/>
      <point x="80" y="661" type="curve" smooth="yes"/>
      <point x="80" y="753"/>
      <point x="122" y="771"/>
      <point x="194" y="776" type="curve"/>
      <point x="251" y="425"/>
      <point x="384" y="252"/>
      <point x="582" y="252" type="curve" smooth="yes"/>
      <point x="716" y="252"/>
      <point x="804" y="331"/>
      <point x="804" y="433" type="curve"/>
      <point x="804" y="553"/>
      <point x="720" y="644"/>
      <point x="607" y="662" type="curve"/>
    </contour>
  </outline>
</glyph>
<glyph name="aa-deva" format="1">
  <advance width="2153"/>
  <unicode hex="0906"/>
  <outline>
    <contour>
      <point x="1464" y="1330" type="line"/>
      <point x="1447" y="1307" type="line"/>
      <point x="1500" y="1137" type="line"/>
      <point x="1706" y="1137" type="line"/>
      <point x="1706" y="-21" type="line"/>
      <point x="1924" y="-57" type="line"/>
      <point x="1946" y="-39" type="line"/>
      <point x="1946" y="1137" type="line"/>
      <point x="2189" y="1137" type="line"/>
      <point x="2206" y="1160" type="line"/>
      <point x="2153" y="1330" type="line"/>
    </contour>
    <component base="a-deva"/>
  </outline>
</glyph>
<glyph name="i-deva" format="1">
  <advance width="1076"/>
  <unicode hex="0907"/>
  <outline>
    <contour>
      <point x="-36" y="1330" type="line"/>
      <point x="-53" y="1307" type="line"/>
      <point x="0" y="1137" type="line"/>
      <point x="648" y="1137" type="line"/>
      <point x="648" y="1056" type="line" smooth="yes"/>
      <point x="648" y="1043"/>
      <point x="641" y="1036"/>
      <point x="628" y="1036" type="curve" smooth="yes"/>
      <point x="307" y="1036" type="line" smooth="yes"/>
      <point x="168" y="1036"/>
      <point x="104" y="972"/>
      <point x="104" y="886" type="curve" smooth="yes"/>
      <point x="104" y="737"/>
      <point x="296" y="502"/>
      <point x="500" y="502" type="curve" smooth="yes"/>
      <point x="562" y="502"/>
      <point x="673" y="524"/>
      <point x="713" y="524" type="curve" smooth="yes"/>
      <point x="743" y="524"/>
      <point x="765" y="511"/>
      <point x="765" y="473" type="curve" smooth="yes"/>
      <point x="765" y="387"/>
      <point x="649" y="291"/>
      <point x="424" y="301" type="curve"/>
      <point x="492" y="269" type="line"/>
      <point x="434" y="371"/>
      <point x="367" y="437"/>
      <point x="273" y="437" type="curve" smooth="yes"/>
      <point x="194" y="437"/>
      <point x="145" y="389"/>
      <point x="145" y="314" type="curve" smooth="yes"/>
      <point x="145" y="196"/>
      <point x="266" y="83"/>
      <point x="480" y="78" type="curve"/>
      <point x="422" y="128" type="line"/>
      <point x="502" y="-143"/>
      <point x="631" y="-233"/>
      <point x="741" y="-233" type="curve" smooth="yes"/>
      <point x="827" y="-233"/>
      <point x="894" y="-178"/>
      <point x="894" y="-94" type="curve" smooth="yes"/>
      <point x="894" y="-67"/>
      <point x="887" y="-39"/>
      <point x="872" y="-7" type="curve"/>
      <point x="842" y="-17"/>
      <point x="816" y="-23"/>
      <point x="773" y="-23" type="curve" smooth="yes"/>
      <point x="674" y="-23"/>
      <point x="611" y="8"/>
      <point x="556" y="113" type="curve"/>
      <point x="537" y="79" type="line"/>
      <point x="775" y="80"/>
      <point x="946" y="204"/>
      <point x="946" y="373" type="curve" smooth="yes"/>
      <point x="946" y="538"/>
      <point x="785" y="745"/>
      <point x="631" y="745" type="curve" smooth="yes"/>
      <point x="571" y="745"/>
      <point x="431" y="714"/>
      <point x="390" y="714" type="curve" smooth="yes"/>
      <point x="350" y="714"/>
      <point x="326" y="743"/>
      <point x="326" y="780" type="curve" smooth="yes"/>
      <point x="326" y="821"/>
      <point x="354" y="845"/>
      <point x="469" y="845" type="curve" smooth="yes"/>
      <point x="862" y="845" type="line"/>
      <point x="882" y="865" type="line"/>
      <point x="882" y="1137" type="line"/>
      <point x="1112" y="1137" type="line"/>
      <point x="1129" y="1160" type="line"/>
      <point x="1076" y="1330" type="line"/>
    </contour>
  </outline>
</glyph>
<glyph name="u-deva" format="1">
  <advance width="1178"/>
  <unicode hex="0909"/>
  <outline>
    <contour>
      <point x="1178" y="1330" type="line"/>
      <point x="1238" y="1137" type="line"/>
      <point x="0" y="1137" type="line"/>
      <point x="-60" y="1330" type="line"/>
    </contour>
    <contour>
      <point x="812" y="1205" type="line"/>
      <point x="933" y="1098"/>
      <point x="980" y="990"/>
      <point x="980" y="893" type="curve" smooth="yes"/>
      <point x="980" y="701"/>
      <point x="796" y="565"/>
      <point x="477" y="565" type="curve"/>
      <point x="365" y="828" type="line"/>
      <point x="615" y="828"/>
      <point x="741" y="910"/>
      <point x="741" y="1014" type="curve" smooth="yes"/>
      <point x="741" y="1088"/>
      <point x="676" y="1137"/>
      <point x="574" y="1137" type="curve"/>
    </contour>
    <contour>
      <point x="809" y="734" type="line"/>
      <point x="942" y="650"/>
      <point x="1037" y="507"/>
      <point x="1037" y="344" type="curve"/>
      <point x="1037" y="144"/>
      <point x="886" y="-8"/>
      <point x="665" y="-8" type="curve"/>
      <point x="221" y="-8"/>
      <point x="39" y="509"/>
      <point x="39" y="704" type="curve" smooth="yes"/>
      <point x="39" y="779"/>
      <point x="66" y="818"/>
      <point x="156" y="826" type="curve"/>
      <point x="216" y="427"/>
      <point x="379" y="237"/>
      <point x="580" y="237" type="curve" smooth="yes"/>
      <point x="711" y="237"/>
      <point x="819" y="317"/>
      <point x="819" y="458" type="curve"/>
      <point x="819" y="563"/>
      <point x="744" y="643"/>
      <point x="649" y="662" type="curve"/>
    </contour>
  </outline>
</glyph>
<glyph name="rVocalic-deva" format="1">
  <advance width="1771"/>
  <unicode hex="090B"/>
  <outline>
    <contour>
      <point x="1771" y="1330" type="line"/>
      <point x="1831" y="1137" type="line"/>
      <point x="0" y="1137" type="line"/>
      <point x="-60" y="1330" type="line"/>
    </contour>
    <contour>
      <point x="1034" y="1243" type="line"/>
      <point x="1034" y="-61" type="line"/>
      <point x="794" y="-21" type="line"/>
      <point x="794" y="1243" type="line"/>
    </contour>
    <contour>
      <point x="94" y="931"/>
      <point x="176" y="1019"/>
      <point x="321" y="1019" type="curve" smooth="yes"/>
      <point x="460" y="1019"/>
      <point x="571" y="943"/>
      <point x="995" y="595" type="curve"/>
      <point x="933" y="503" type="line"/>
      <point x="585" y="770"/>
      <point x="544" y="779"/>
      <point x="476" y="779" type="curve"/>
      <point x="403" y="779"/>
      <point x="324" y="731"/>
      <point x="274" y="665" type="curve"/>
      <point x="162" y="723"/>
      <point x="94" y="787"/>
      <point x="94" y="859" type="curve"/>
    </contour>
    <contour>
      <point x="1008" y="554" type="line"/>
      <point x="788" y="413"/>
      <point x="602" y="258"/>
      <point x="428" y="98" type="curve"/>
      <point x="215" y="282" type="line"/>
      <point x="389" y="438"/>
      <point x="582" y="590"/>
      <point x="805" y="727" type="curve"/>
    </contour>
    <contour>
      <point x="1051" y="710"/>
      <point x="1180" y="753"/>
      <point x="1291" y="851" type="curve"/>
      <point x="1312" y="708" type="line"/>
      <point x="1216" y="816"/>
      <point x="1193" y="869"/>
      <point x="1193" y="924" type="curve"/>
      <point x="1193" y="977"/>
      <point x="1226" y="1055"/>
      <point x="1336" y="1055" type="curve" smooth="yes"/>
      <point x="1455" y="1055"/>
      <point x="1557" y="943"/>
      <point x="1557" y="832" type="curve" smooth="yes"/>
      <point x="1557" y="668"/>
      <point x="1298" y="506"/>
      <point x="998" y="506" type="curve"/>
      <point x="876" y="710" type="line"/>
    </contour>
    <contour>
      <point x="1346" y="76"/>
      <point x="1258" y="152"/>
      <point x="1240" y="270" type="curve"/>
      <point x="1362" y="270"/>
      <point x="1458" y="338"/>
      <point x="1458" y="421" type="curve"/>
      <point x="1458" y="488"/>
      <point x="1438" y="534"/>
      <point x="1290" y="726" type="curve"/>
      <point x="1445" y="718" type="line"/>
      <point x="1605" y="524"/>
      <point x="1668" y="411"/>
      <point x="1668" y="294" type="curve"/>
      <point x="1668" y="175"/>
      <point x="1582" y="76"/>
      <point x="1466" y="76" type="curve"/>
    </contour>
  </outline>
</glyph>
<glyph name="lVocalic-deva" format="1">
  <advance width="1491"/>
  <unicode hex="090C"/>
  <outline>
    <contour>
      <point x="1491" y="1330" type="line"/>
      <point x="1551" y="1137" type="line"/>
      <point x="0" y="1137" type="line"/>
      <point x="-60" y="1330" type="line"/>
    </contour>
    <contour>
      <point x="1154" y="1243" type="line"/>
      <point x="1154" y="809" type="line"/>
      <point x="924" y="849" type="line"/>
      <point x="924" y="1243" type="line"/>
    </contour>
    <contour>
      <point x="693" y="-34"/>
      <point x="658" y="-68"/>
      <point x="614" y="-68" type="curve" smooth="yes"/>
      <point x="427" y="-68"/>
      <point x="102" y="304"/>
      <point x="102" y="603" type="curve" smooth="yes"/>
      <point x="102" y="780"/>
      <point x="208" y="904"/>
      <point x="383" y="904" type="curve"/>
      <point x="529" y="904"/>
      <point x="665" y="827"/>
      <point x="838" y="613" type="curve"/>
      <point x="768" y="518" type="line"/>
      <point x="676" y="636"/>
      <point x="592" y="688"/>
      <point x="501" y="688" type="curve"/>
      <point x="407" y="688"/>
      <point x="338" y="604"/>
      <point x="338" y="497" type="curve" smooth="yes"/>
      <point x="338" y="350"/>
      <point x="467" y="156"/>
      <point x="701" y="14" type="curve"/>
    </contour>
    <contour>
      <point x="1496" y="-187"/>
      <point x="1393" y="-270"/>
      <point x="1255" y="-270" type="curve" smooth="yes"/>
      <point x="1063" y="-270"/>
      <point x="876" y="-108"/>
      <point x="876" y="33" type="curve" smooth="yes"/>
      <point x="876" y="136"/>
      <point x="975" y="240"/>
      <point x="1038" y="313" type="curve" smooth="yes"/>
      <point x="1137" y="427"/>
      <point x="1198" y="513"/>
      <point x="1198" y="590" type="curve" smooth="yes"/>
      <point x="1198" y="648"/>
      <point x="1163" y="671"/>
      <point x="1113" y="671" type="curve" smooth="yes"/>
      <point x="1013" y="671"/>
      <point x="880" y="581"/>
      <point x="788" y="353" type="curve"/>
      <point x="568" y="502" type="line"/>
      <point x="666" y="771"/>
      <point x="842" y="889"/>
      <point x="1001" y="889" type="curve" smooth="yes"/>
      <point x="1197" y="889"/>
      <point x="1397" y="711"/>
      <point x="1397" y="477" type="curve" smooth="yes"/>
      <point x="1397" y="391"/>
      <point x="1370" y="326"/>
      <point x="1275" y="210" type="curve" smooth="yes"/>
      <point x="1147" y="54"/>
      <point x="1075" y="16"/>
      <point x="1075" y="-36" type="curve" smooth="yes"/>
      <point x="1075" y="-59"/>
      <point x="1089" y="-74"/>
      <point x="1119" y="-74" type="curve" smooth="yes"/>
      <point x="1170" y="-74"/>
      <point x="1275" y="-31"/>
      <point x="1331" y="67" type="curve"/>
      <point x="1430" y="39"/>
      <point x="1496" y="-42"/>
      <point x="1496" y="-106" type="curve"/>
    </contour>
  </outline>
</glyph>
<glyph name="eShort-deva" format="1">
  <advance width="1206"/>
  <unicode hex="090E"/>
  <outline>
    <contour>
      <point x="-90" y="1922"/>
      <point x="-100" y="1896"/>
      <point x="-100" y="1852" type="curve"/>
      <point x="-100" y="1687"/>
      <point x="80" y="1521"/>
      <point x="535" y="1494" type="curve" smooth="yes"/>
      <point x="722" y="1482"/>
      <point x="768" y="1461"/>
      <point x="768" y="1403" type="curve" smooth="yes"/>
      <point x="768" y="1378"/>
      <point x="760" y="1339"/>
      <point x="741" y="1301" type="curve"/>
      <point x="977" y="1301" type="line"/>
      <point x="897" y="1548"/>
      <point x="731" y="1694"/>
      <point x="434" y="1740" type="curve" smooth="yes"/>
      <point x="116" y="1791"/>
      <point x="19" y="1834"/>
      <point x="-62" y="1956" type="curve"/>
    </contour>
    <component base="e-deva"/>
  </outline>
</glyph>
<glyph name="e-deva" format="1">
  <advance width="1206"/>
  <unicode hex="090F"/>
  <outline>
    <contour>
      <point x="-36" y="1330" type="line"/>
      <point x="-53" y="1307" type="line"/>
      <point x="0" y="1137" type="line"/>
      <point x="123" y="1137" type="line"/>
      <point x="123" y="767" type="line" smooth="yes"/>
      <point x="123" y="507"/>
      <point x="271" y="437"/>
      <point x="686" y="245" type="curve" smooth="yes"/>
      <point x="887" y="152"/>
      <point x="899" y="128"/>
      <point x="899" y="75" type="curve" smooth="yes"/>
      <point x="899" y="19"/>
      <point x="856" y="-34"/>
      <point x="759" y="-79" type="curve"/>
      <point x="802" y="-162"/>
      <point x="876" y="-215"/>
      <point x="966" y="-215" type="curve" smooth="yes"/>
      <point x="1068" y="-215"/>
      <point x="1136" y="-148"/>
      <point x="1136" y="-38" type="curve" smooth="yes"/>
      <point x="1136" y="133"/>
      <point x="968" y="243"/>
      <point x="720" y="377" type="curve" smooth="yes"/>
      <point x="413" y="543"/>
      <point x="363" y="540"/>
      <point x="363" y="651" type="curve" smooth="yes"/>
      <point x="363.821" y="1137" type="line"/>
      <point x="748" y="1137" type="line"/>
      <point x="748" y="781" type="line" smooth="yes"/>
      <point x="748" y="711"/>
      <point x="709" y="649"/>
      <point x="630" y="621" type="curve"/>
      <point x="693" y="540"/>
      <point x="763" y="484"/>
      <point x="845" y="484" type="curve" smooth="yes"/>
      <point x="932" y="484"/>
      <point x="988" y="547"/>
      <point x="988" y="647" type="curve" smooth="yes"/>
      <point x="988" y="1137" type="line"/>
      <point x="1242" y="1137" type="line"/>
      <point x="1259" y="1160" type="line"/>
      <point x="1206" y="1330" type="line"/>
    </contour>
  </outline>
</glyph>
<glyph name="ai-deva" format="1">
  <advance width="1206"/>
  <unicode hex="0910"/>
  <outline>
    <contour>
      <point x="65" y="1932"/>
      <point x="10" y="1861"/>
      <point x="10" y="1793" type="curve" smooth="yes"/>
      <point x="10" y="1711"/>
      <point x="90" y="1624"/>
      <point x="209" y="1588" type="curve"/>
      <point x="236" y="1627"/>
      <point x="283" y="1658"/>
      <point x="349" y="1658" type="curve"/>
      <point x="453" y="1658"/>
      <point x="540" y="1592"/>
      <point x="840" y="1210" type="curve"/>
      <point x="975" y="1249" type="line"/>
      <point x="574" y="1780"/>
      <point x="387" y="1932"/>
      <point x="196" y="1932" type="curve" smooth="yes"/>
    </contour>
    <component base="e-deva"/>
  </outline>
</glyph>
<glyph name="oShort-deva" format="1">
  <advance width="2153"/>
  <unicode hex="0912"/>
  <outline>
    <contour>
      <point x="875" y="1922"/>
      <point x="865" y="1896"/>
      <point x="865" y="1852" type="curve"/>
      <point x="865" y="1687"/>
      <point x="1045" y="1521"/>
      <point x="1500" y="1494" type="curve" smooth="yes"/>
      <point x="1687" y="1482"/>
      <point x="1733" y="1461"/>
      <point x="1733" y="1403" type="curve" smooth="yes"/>
      <point x="1733" y="1378"/>
      <point x="1725" y="1339"/>
      <point x="1706" y="1301" type="curve"/>
      <point x="1942" y="1301" type="line"/>
      <point x="1862" y="1548"/>
      <point x="1696" y="1694"/>
      <point x="1399" y="1740" type="curve" smooth="yes"/>
      <point x="1081" y="1791"/>
      <point x="984" y="1834"/>
      <point x="903" y="1956" type="curve"/>
    </contour>
    <component base="aa-deva"/>
  </outline>
</glyph>
<glyph name="o-deva" format="1">
  <advance width="2153"/>
  <unicode hex="0913"/>
  <outline>
    <contour>
      <point x="1048" y="1624"/>
      <point x="968" y="1711"/>
      <point x="968" y="1793" type="curve" smooth="yes"/>
      <point x="968" y="1861"/>
      <point x="1023" y="1932"/>
      <point x="1154" y="1932" type="curve" smooth="yes"/>
      <point x="1345" y="1932"/>
      <point x="1532" y="1780"/>
      <point x="1933" y="1249" type="curve"/>
      <point x="1798" y="1210" type="line"/>
      <point x="1498" y="1592"/>
      <point x="1411" y="1658"/>
      <point x="1307" y="1658" type="curve"/>
      <point x="1241" y="1658"/>
      <point x="1194" y="1627"/>
      <point x="1167" y="1588" type="curve"/>
    </contour>
    <component base="aa-deva"/>
  </outline>
</glyph>
<glyph name="ka-deva" format="1">
  <advance width="1622"/>
  <unicode hex="0915"/>
  <outline>
    <contour>
      <point x="-36" y="1330" type="line"/>
      <point x="-53" y="1307" type="line"/>
      <point x="0" y="1137" type="line"/>
      <point x="733" y="1137" type="line"/>
      <point x="733" y="873" type="line"/>
      <point x="723" y="868" type="line"/>
      <point x="631" y="953"/>
      <point x="521" y="987"/>
      <point x="426" y="987" type="curve" smooth="yes"/>
      <point x="239" y="987"/>
      <point x="99" y="852"/>
      <point x="99" y="659" type="curve" smooth="yes"/>
      <point x="99" y="390"/>
      <point x="372" y="149"/>
      <point x="597" y="149" type="curve" smooth="yes"/>
      <point x="637" y="149"/>
      <point x="681" y="157"/>
      <point x="724" y="174" type="curve"/>
      <point x="733" y="168" type="line"/>
      <point x="733" y="-21" type="line"/>
      <point x="951" y="-57" type="line"/>
      <point x="973" y="-39" type="line"/>
      <point x="973" y="468" type="line" smooth="yes"/>
      <point x="973" y="637"/>
      <point x="1098" y="765"/>
      <point x="1212" y="765" type="curve" smooth="yes"/>
      <point x="1282" y="765"/>
      <point x="1331" y="719"/>
      <point x="1331" y="635" type="curve" smooth="yes"/>
      <point x="1331" y="489"/>
      <point x="1240" y="343"/>
      <point x="1107" y="273" type="curve"/>
      <point x="1169" y="181"/>
      <point x="1252" y="140"/>
      <point x="1319" y="140" type="curve" smooth="yes"/>
      <point x="1426" y="140"/>
      <point x="1536" y="247"/>
      <point x="1536" y="460" type="curve" smooth="yes"/>
      <point x="1536" y="750"/>
      <point x="1330" y="946"/>
      <point x="1125" y="946" type="curve" smooth="yes"/>
      <point x="1068" y="946"/>
      <point x="1022" y="930"/>
      <point x="982" y="899" type="curve"/>
      <point x="973" y="905" type="line"/>
      <point x="973" y="1137" type="line"/>
      <point x="1658" y="1137" type="line"/>
      <point x="1675" y="1160" type="line"/>
      <point x="1622" y="1330" type="line"/>
    </contour>
    <contour>
      <point x="653" y="773"/>
      <point x="733" y="685"/>
      <point x="733" y="582" type="curve" smooth="yes"/>
      <point x="733" y="538" type="line" smooth="yes"/>
      <point x="733" y="426"/>
      <point x="633" y="348"/>
      <point x="528" y="348" type="curve" smooth="yes"/>
      <point x="417" y="348"/>
      <point x="334" y="434"/>
      <point x="334" y="553" type="curve" smooth="yes"/>
      <point x="334" y="676"/>
      <point x="422" y="773"/>
      <point x="540" y="773" type="curve" smooth="yes"/>
    </contour>
  </outline>
</glyph>
<glyph name="kha-deva" format="1">
  <advance width="1646"/>
  <unicode hex="0916"/>
  <outline>
    <contour>
      <point x="1646" y="1330" type="line"/>
      <point x="1706" y="1137" type="line"/>
      <point x="0" y="1137" type="line"/>
      <point x="-60" y="1330" type="line"/>
    </contour>
    <contour>
      <point x="1198" y="611" type="line"/>
      <point x="1198" y="698"/>
      <point x="1127" y="784"/>
      <point x="1015" y="784" type="curve" smooth="yes"/>
      <point x="911" y="784"/>
      <point x="845" y="709"/>
      <point x="845" y="603" type="curve" smooth="yes"/>
      <point x="845" y="502"/>
      <point x="906" y="428"/>
      <point x="1000" y="428" type="curve" smooth="yes"/>
      <point x="1085" y="428"/>
      <point x="1199" y="489"/>
      <point x="1199" y="626" type="curve"/>
      <point x="1382" y="394" type="line"/>
      <point x="1296" y="287"/>
      <point x="1180" y="236"/>
      <point x="1077" y="236" type="curve" smooth="yes"/>
      <point x="860" y="236"/>
      <point x="638" y="461"/>
      <point x="638" y="700" type="curve" smooth="yes"/>
      <point x="638" y="874"/>
      <point x="755" y="986"/>
      <point x="925" y="986" type="curve" smooth="yes"/>
      <point x="1031" y="986"/>
      <point x="1131" y="943"/>
      <point x="1199" y="872" type="curve"/>
    </contour>
    <contour>
      <point x="371" y="1235" type="line"/>
      <point x="478" y="1144"/>
      <point x="549" y="1007"/>
      <point x="549" y="834" type="curve" smooth="yes"/>
      <point x="549" y="663"/>
      <point x="480" y="508"/>
      <point x="299" y="405" type="curve"/>
      <point x="136" y="682" type="line"/>
      <point x="286" y="789"/>
      <point x="326" y="858"/>
      <point x="326" y="969" type="curve" smooth="yes"/>
      <point x="326" y="1088"/>
      <point x="280" y="1171"/>
      <point x="193" y="1236" type="curve"/>
    </contour>
    <contour>
      <point x="329" y="819"/>
      <point x="427" y="750"/>
      <point x="471" y="603" type="curve"/>
      <point x="334" y="555" type="line"/>
      <point x="412" y="283"/>
      <point x="697" y="116"/>
      <point x="1045" y="96" type="curve"/>
      <point x="1045" y="30"/>
      <point x="1020" y="-36"/>
      <point x="907" y="-36" type="curve"/>
      <point x="475" y="-16"/>
      <point x="92" y="421"/>
      <point x="92" y="658" type="curve" smooth="yes"/>
      <point x="92" y="749"/>
      <point x="149" y="819"/>
      <point x="239" y="819" type="curve" smooth="yes"/>
    </contour>
    <contour>
      <point x="1438" y="1243" type="line"/>
      <point x="1438" y="-61" type="line"/>
      <point x="1198" y="-21" type="line"/>
      <point x="1198" y="1243" type="line"/>
    </contour>
  </outline>
</glyph>
<glyph name="ga-deva" format="1">
  <advance width="1301"/>
  <unicode hex="0917"/>
  <outline>
    <contour>
      <point x="-36" y="1330" type="line"/>
      <point x="-53" y="1307" type="line"/>
      <point x="0" y="1137" type="line"/>
      <point x="284" y="1137" type="line"/>
      <point x="284" y="646" type="line"/>
      <point x="169" y="646" type="line" smooth="yes"/>
      <point x="99" y="646"/>
      <point x="70" y="619"/>
      <point x="70" y="573" type="curve" smooth="yes"/>
      <point x="70" y="487"/>
      <point x="268" y="273"/>
      <point x="391" y="273" type="curve" smooth="yes"/>
      <point x="479" y="273"/>
      <point x="519" y="314"/>
      <point x="519" y="484" type="curve" smooth="yes"/>
      <point x="519" y="1137" type="line"/>
      <point x="874" y="1137" type="line"/>
      <point x="874" y="-21" type="line"/>
      <point x="1092" y="-57" type="line"/>
      <point x="1114" y="-39" type="line"/>
      <point x="1114" y="1137" type="line"/>
      <point x="1337" y="1137" type="line"/>
      <point x="1354" y="1160" type="line"/>
      <point x="1301" y="1330" type="line"/>
    </contour>
  </outline>
</glyph>
<glyph name="gha-deva" format="1">
  <advance width="1321"/>
  <unicode hex="0918"/>
  <outline>
    <contour>
      <point x="1321" y="1330" type="line"/>
      <point x="1381" y="1137" type="line"/>
      <point x="0" y="1137" type="line"/>
      <point x="-60" y="1330" type="line"/>
    </contour>
    <contour>
      <point x="209" y="772"/>
      <point x="96" y="897"/>
      <point x="96" y="1062" type="curve" smooth="yes"/>
      <point x="96" y="1170"/>
      <point x="145" y="1241"/>
      <point x="280" y="1299" type="curve"/>
      <point x="544" y="1137" type="line"/>
      <point x="413" y="1137"/>
      <point x="332" y="1047"/>
      <point x="332" y="950" type="curve" smooth="yes"/>
      <point x="332" y="880"/>
      <point x="374" y="816"/>
      <point x="489" y="756" type="curve"/>
      <point x="387" y="676" type="line"/>
    </contour>
    <contour>
      <point x="1075" y="329" type="line"/>
      <point x="1018" y="221"/>
      <point x="875" y="141"/>
      <point x="718" y="141" type="curve" smooth="yes"/>
      <point x="458" y="141"/>
      <point x="259" y="359"/>
      <point x="259" y="563" type="curve" smooth="yes"/>
      <point x="259" y="729"/>
      <point x="390" y="872"/>
      <point x="586" y="918" type="curve"/>
      <point x="785" y="720" type="line"/>
      <point x="571" y="673"/>
      <point x="461" y="565"/>
      <point x="461" y="472" type="curve"/>
      <point x="461" y="390"/>
      <point x="517" y="341"/>
      <point x="606" y="341" type="curve" smooth="yes"/>
      <point x="722" y="341"/>
      <point x="892" y="423"/>
      <point x="894" y="590" type="curve"/>
    </contour>
    <contour>
      <point x="1134" y="1243" type="line"/>
      <point x="1134" y="-61" type="line"/>
      <point x="894" y="-21" type="line"/>
      <point x="894" y="1243" type="line"/>
    </contour>
  </outline>
</glyph>
<glyph name="nga-deva" format="1">
  <advance width="1272"/>
  <unicode hex="0919"/>
  <outline>
    <contour>
      <point x="1272" y="1330" type="line"/>
      <point x="1332" y="1137" type="line"/>
      <point x="0" y="1137" type="line"/>
      <point x="-60" y="1330" type="line"/>
    </contour>
    <contour>
      <point x="922" y="1243" type="line"/>
      <point x="922" y="865" type="line"/>
      <point x="688" y="935" type="line"/>
      <point x="688" y="1243" type="line"/>
    </contour>
    <contour>
      <point x="321" y="9"/>
      <point x="79" y="390"/>
      <point x="71" y="535" type="curve" smooth="yes"/>
      <point x="68" y="588"/>
      <point x="95" y="617"/>
      <point x="143" y="636" type="curve"/>
      <point x="260" y="380"/>
      <point x="426" y="240"/>
      <point x="596" y="240" type="curve"/>
      <point x="722" y="240"/>
      <point x="830" y="316"/>
      <point x="830" y="432" type="curve" smooth="yes"/>
      <point x="830" y="470"/>
      <point x="818" y="499"/>
      <point x="773" y="499" type="curve" smooth="yes"/>
      <point x="739" y="499"/>
      <point x="635" y="482"/>
      <point x="581" y="482" type="curve" smooth="yes"/>
      <point x="381" y="482"/>
      <point x="164" y="719"/>
      <point x="164" y="891" type="curve" smooth="yes"/>
      <point x="164" y="977"/>
      <point x="225" y="1036"/>
      <point x="357" y="1036" type="curve"/>
      <point x="922" y="1036" type="line"/>
      <point x="922" y="865" type="line"/>
      <point x="519" y="865" type="line"/>
      <point x="409" y="865"/>
      <point x="376" y="833"/>
      <point x="376" y="783" type="curve" smooth="yes"/>
      <point x="376" y="739"/>
      <point x="402" y="713"/>
      <point x="477" y="713" type="curve" smooth="yes"/>
      <point x="530" y="713"/>
      <point x="647" y="726"/>
      <point x="691" y="726" type="curve" smooth="yes"/>
      <point x="863" y="726"/>
      <point x="1020" y="531"/>
      <point x="1020" y="322" type="curve" smooth="yes"/>
      <point x="1020" y="127"/>
      <point x="883" y="9"/>
      <point x="684" y="9" type="curve"/>
    </contour>
    <contour>
      <point x="1141" y="601"/>
      <point x="1197" y="658"/>
      <point x="1197" y="727" type="curve" smooth="yes"/>
      <point x="1197" y="796"/>
      <point x="1141" y="853"/>
      <point x="1072" y="853" type="curve" smooth="yes"/>
      <point x="1002" y="853"/>
      <point x="945" y="796"/>
      <point x="945" y="727" type="curve" smooth="yes"/>
      <point x="945" y="658"/>
      <point x="1002" y="601"/>
      <point x="1072" y="601" type="curve" smooth="yes"/>
    </contour>
  </outline>
</glyph>
<glyph name="ca-deva" format="1">
  <advance width="1381"/>
  <unicode hex="091A"/>
  <outline>
    <contour>
      <point x="-36" y="1330" type="line"/>
      <point x="-53" y="1307" type="line"/>
      <point x="0" y="1137" type="line"/>
      <point x="954" y="1137" type="line"/>
      <point x="954" y="590" type="line" smooth="yes"/>
      <point x="954" y="453"/>
      <point x="806" y="333"/>
      <point x="652" y="333" type="curve" smooth="yes"/>
      <point x="546" y="333"/>
      <point x="491" y="400"/>
      <point x="491" y="480" type="curve" smooth="yes"/>
      <point x="491" y="607"/>
      <point x="612" y="720"/>
      <point x="801" y="720" type="curve" smooth="yes"/>
      <point x="832" y="720" type="line"/>
      <point x="849" y="743" type="line"/>
      <point x="796" y="913" type="line"/>
      <point x="82" y="913" type="line"/>
      <point x="65" y="890" type="line"/>
      <point x="118" y="720" type="line"/>
      <point x="306" y="720" type="line"/>
      <point x="311" y="711" type="line"/>
      <point x="291" y="668"/>
      <point x="279" y="621"/>
      <point x="279" y="570" type="curve" smooth="yes"/>
      <point x="279" y="361"/>
      <point x="476" y="141"/>
      <point x="749" y="141" type="curve" smooth="yes"/>
      <point x="809" y="141"/>
      <point x="879" y="152"/>
      <point x="945" y="174" type="curve"/>
      <point x="954" y="167" type="line"/>
      <point x="954" y="-21" type="line"/>
      <point x="1172" y="-57" type="line"/>
      <point x="1194" y="-39" type="line"/>
      <point x="1194" y="1137" type="line"/>
      <point x="1417" y="1137" type="line"/>
      <point x="1434" y="1160" type="line"/>
      <point x="1381" y="1330" type="line"/>
    </contour>
  </outline>
</glyph>
<glyph name="cha-deva" format="1">
  <advance width="1481"/>
  <unicode hex="091B"/>
  <outline>
    <contour>
      <point x="1481" y="1330" type="line"/>
      <point x="1541" y="1137" type="line"/>
      <point x="0" y="1137" type="line"/>
      <point x="-60" y="1330" type="line"/>
    </contour>
    <contour>
      <point x="284" y="566"/>
      <point x="117" y="706"/>
      <point x="117" y="864" type="curve" smooth="yes"/>
      <point x="117" y="994"/>
      <point x="230" y="1075"/>
      <point x="350" y="1075" type="curve" smooth="yes"/>
      <point x="477" y="1075"/>
      <point x="578" y="985"/>
      <point x="624" y="897" type="curve"/>
      <point x="428" y="897"/>
      <point x="332" y="827"/>
      <point x="332" y="744" type="curve" smooth="yes"/>
      <point x="332" y="672"/>
      <point x="407" y="627"/>
      <point x="579" y="596" type="curve"/>
      <point x="457" y="516" type="line"/>
    </contour>
    <contour>
      <point x="1223" y="-137"/>
      <point x="1134" y="-77"/>
      <point x="1081" y="1" type="curve"/>
      <point x="1195" y="16"/>
      <point x="1258" y="67"/>
      <point x="1258" y="154" type="curve" smooth="yes"/>
      <point x="1258" y="222"/>
      <point x="1219" y="251"/>
      <point x="1116" y="339" type="curve" smooth="yes"/>
      <point x="909" y="517"/>
      <point x="775" y="661"/>
      <point x="775" y="809" type="curve" smooth="yes"/>
      <point x="775" y="931"/>
      <point x="866" y="1011"/>
      <point x="975" y="1011" type="curve" smooth="yes"/>
      <point x="1158" y="1011"/>
      <point x="1314" y="784"/>
      <point x="1314" y="614" type="curve"/>
      <point x="1314" y="299"/>
      <point x="1053" y="11"/>
      <point x="750" y="11" type="curve" smooth="yes"/>
      <point x="500" y="11"/>
      <point x="269" y="207"/>
      <point x="269" y="426" type="curve" smooth="yes"/>
      <point x="269" y="588"/>
      <point x="395" y="710"/>
      <point x="586" y="728" type="curve"/>
      <point x="765" y="540" type="line"/>
      <point x="562" y="517"/>
      <point x="471" y="409"/>
      <point x="471" y="318" type="curve"/>
      <point x="471" y="251"/>
      <point x="524" y="198"/>
      <point x="623" y="198" type="curve"/>
      <point x="887" y="198"/>
      <point x="1130" y="491"/>
      <point x="1130" y="725" type="curve" smooth="yes"/>
      <point x="1130" y="777"/>
      <point x="1118" y="822"/>
      <point x="1070" y="822" type="curve" smooth="yes"/>
      <point x="1016" y="822"/>
      <point x="975" y="766"/>
      <point x="975" y="694" type="curve" smooth="yes"/>
      <point x="975" y="601"/>
      <point x="1042" y="545"/>
      <point x="1161" y="437" type="curve" smooth="yes"/>
      <point x="1324" y="289"/>
      <point x="1451" y="163"/>
      <point x="1451" y="22" type="curve" smooth="yes"/>
      <point x="1451" y="-83"/>
      <point x="1381" y="-137"/>
      <point x="1304" y="-137" type="curve" smooth="yes"/>
    </contour>
    <contour>
      <point x="1142" y="1243" type="line"/>
      <point x="1142" y="919" type="line"/>
      <point x="922" y="939" type="line"/>
      <point x="922" y="1243" type="line"/>
    </contour>
  </outline>
</glyph>
<glyph name="ja-deva" format="1">
  <advance width="1481"/>
  <unicode hex="091C"/>
  <outline>
    <contour>
      <point x="1481" y="1330" type="line"/>
      <point x="1541" y="1137" type="line"/>
      <point x="0" y="1137" type="line"/>
      <point x="-60" y="1330" type="line"/>
    </contour>
    <contour>
      <point x="1082" y="893" type="line"/>
      <point x="1142" y="700" type="line"/>
      <point x="494" y="700" type="line"/>
      <point x="434" y="893" type="line"/>
    </contour>
    <contour>
      <point x="1294" y="1243" type="line"/>
      <point x="1294" y="-61" type="line"/>
      <point x="1054" y="-21" type="line"/>
      <point x="1054" y="1243" type="line"/>
    </contour>
    <contour>
      <point x="654" y="822" type="line"/>
      <point x="811" y="724"/>
      <point x="912" y="576"/>
      <point x="912" y="411" type="curve"/>
      <point x="912" y="236"/>
      <point x="777" y="119"/>
      <point x="610" y="119" type="curve"/>
      <point x="245" y="119"/>
      <point x="93" y="598"/>
      <point x="90" y="781" type="curve" smooth="yes"/>
      <point x="89" y="861"/>
      <point x="113" y="904"/>
      <point x="211" y="913" type="curve"/>
      <point x="269" y="525"/>
      <point x="381" y="369"/>
      <point x="531" y="369" type="curve" smooth="yes"/>
      <point x="621" y="369"/>
      <point x="698" y="425"/>
      <point x="698" y="525" type="curve"/>
      <point x="698" y="615"/>
      <point x="625" y="700"/>
      <point x="514" y="700" type="curve"/>
    </contour>
  </outline>
</glyph>
<glyph name="jha-deva" format="1">
  <advance width="1560"/>
  <unicode hex="091D"/>
  <outline>
    <contour>
      <point x="-36" y="1330" type="line"/>
      <point x="-53" y="1307" type="line"/>
      <point x="0" y="1137" type="line"/>
      <point x="618" y="1137" type="line"/>
      <point x="618" y="1056" type="line" smooth="yes"/>
      <point x="618" y="1043"/>
      <point x="611" y="1036"/>
      <point x="598" y="1036" type="curve" smooth="yes"/>
      <point x="307" y="1036" type="line" smooth="yes"/>
      <point x="168" y="1036"/>
      <point x="104" y="972"/>
      <point x="104" y="886" type="curve" smooth="yes"/>
      <point x="104" y="737"/>
      <point x="296" y="502"/>
      <point x="500" y="502" type="curve" smooth="yes"/>
      <point x="562" y="502"/>
      <point x="673" y="524"/>
      <point x="713" y="524" type="curve" smooth="yes"/>
      <point x="743" y="524"/>
      <point x="765" y="511"/>
      <point x="765" y="473" type="curve" smooth="yes"/>
      <point x="765" y="393.299"/>
      <point x="665.804" y="305.095"/>
      <point x="472.923" y="300.213" type="curve"/>
      <point x="419.565" y="383.885"/>
      <point x="357.329" y="437"/>
      <point x="273" y="437" type="curve" smooth="yes"/>
      <point x="194" y="437"/>
      <point x="145" y="389"/>
      <point x="145" y="314" type="curve" smooth="yes"/>
      <point x="145" y="203.681"/>
      <point x="249.736" y="98.5627"/>
      <point x="437.442" y="80.5892" type="curve"/>
      <point x="517.781" y="-153.39"/>
      <point x="638.098" y="-233"/>
      <point x="741" y="-233" type="curve" smooth="yes"/>
      <point x="827" y="-233"/>
      <point x="894" y="-178"/>
      <point x="894" y="-94" type="curve" smooth="yes"/>
      <point x="894" y="-67"/>
      <point x="887" y="-39"/>
      <point x="872" y="-7" type="curve"/>
      <point x="842" y="-17"/>
      <point x="816" y="-23"/>
      <point x="773" y="-23" type="curve" smooth="yes"/>
      <point x="685.63" y="-23"/>
      <point x="625.52" y="1.16258"/>
      <point x="574.627" y="80.2107" type="curve"/>
      <point x="793.175" y="93.3839"/>
      <point x="946" y="212.756"/>
      <point x="946" y="373" type="curve" smooth="yes"/>
      <point x="946" y="417"/>
      <point x="935" y="463"/>
      <point x="915" y="508" type="curve"/>
      <point x="922" y="515" type="line"/>
      <point x="975" y="494"/>
      <point x="1027" y="483"/>
      <point x="1076" y="483" type="curve" smooth="yes"/>
      <point x="1094.95" y="483"/>
      <point x="1113.66" y="484.667"/>
      <point x="1132" y="488.098" type="curve"/>
      <point x="1132" y="-21" type="line"/>
      <point x="1350" y="-57" type="line"/>
      <point x="1372" y="-39" type="line"/>
      <point x="1372" y="1137" type="line"/>
      <point x="1596" y="1137" type="line"/>
      <point x="1613" y="1160" type="line"/>
      <point x="1560" y="1330" type="line"/>
    </contour>
    <contour>
      <point x="1132" y="877" type="line" smooth="yes"/>
      <point x="1132" y="740"/>
      <point x="1034" y="666"/>
      <point x="907" y="666" type="curve" smooth="yes"/>
      <point x="864.964" y="666"/>
      <point x="819.477" y="674.197"/>
      <point x="773.372" y="691.157" type="curve"/>
      <point x="728.721" y="724.457"/>
      <point x="679.513" y="745"/>
      <point x="631" y="745" type="curve" smooth="yes"/>
      <point x="571" y="745"/>
      <point x="431" y="714"/>
      <point x="390" y="714" type="curve" smooth="yes"/>
      <point x="350" y="714"/>
      <point x="326" y="743"/>
      <point x="326" y="780" type="curve" smooth="yes"/>
      <point x="326" y="821"/>
      <point x="354" y="845"/>
      <point x="469" y="845" type="curve" smooth="yes"/>
      <point x="832" y="845" type="line"/>
      <point x="852" y="865" type="line"/>
      <point x="852" y="1137" type="line"/>
      <point x="1132" y="1137" type="line"/>
    </contour>
  </outline>
</glyph>
<glyph name="nya-deva" format="1">
  <advance width="1601"/>
  <unicode hex="091E"/>
  <outline>
    <contour>
      <point x="-36" y="1330" type="line"/>
      <point x="-53" y="1307" type="line"/>
      <point x="0" y="1137" type="line"/>
      <point x="1174" y="1137" type="line"/>
      <point x="1174" y="757" type="line" smooth="yes"/>
      <point x="1174" y="647"/>
      <point x="1096" y="616"/>
      <point x="1028" y="616" type="curve" smooth="yes"/>
      <point x="1008.19" y="616"/>
      <point x="990.2" y="618.656"/>
      <point x="972.799" y="624.933" type="curve"/>
      <point x="901.98" y="815.922"/>
      <point x="717.448" y="964"/>
      <point x="536" y="964" type="curve" smooth="yes"/>
      <point x="404" y="964"/>
      <point x="331" y="885"/>
      <point x="331" y="810" type="curve" smooth="yes"/>
      <point x="331" y="735"/>
      <point x="388" y="656"/>
      <point x="512" y="633" type="curve"/>
      <point x="551" y="699"/>
      <point x="605" y="737"/>
      <point x="676" y="737" type="curve" smooth="yes"/>
      <point x="748" y="737"/>
      <point x="795" y="697"/>
      <point x="795" y="597" type="curve" smooth="yes"/>
      <point x="795" y="463"/>
      <point x="711" y="337"/>
      <point x="546" y="337" type="curve" smooth="yes"/>
      <point x="364" y="337"/>
      <point x="240" y="490"/>
      <point x="183" y="830" type="curve"/>
      <point x="102" y="830"/>
      <point x="80.9999" y="787"/>
      <point x="80.9999" y="713" type="curve" smooth="yes"/>
      <point x="80.9999" y="496"/>
      <point x="266" y="115"/>
      <point x="642" y="115" type="curve" smooth="yes"/>
      <point x="877" y="115"/>
      <point x="994" y="265"/>
      <point x="1003" y="441" type="curve"/>
      <point x="1012" y="446" type="line"/>
      <point x="1062" y="413"/>
      <point x="1114" y="393"/>
      <point x="1171" y="393" type="curve" smooth="yes"/>
      <point x="1174" y="393.019" type="line"/>
      <point x="1174" y="-20.9998" type="line"/>
      <point x="1392" y="-56.9998" type="line"/>
      <point x="1414" y="-38.9998" type="line"/>
      <point x="1414" y="1137" type="line"/>
      <point x="1637" y="1137" type="line"/>
      <point x="1654" y="1160" type="line"/>
      <point x="1601" y="1330" type="line"/>
    </contour>
  </outline>
</glyph>
<glyph name="tta-deva" format="1">
  <advance width="1068"/>
  <unicode hex="091F"/>
  <outline>
    <contour>
      <point x="1068" y="1330" type="line"/>
      <point x="1128" y="1137" type="line"/>
      <point x="0" y="1137" type="line"/>
      <point x="-60" y="1330" type="line"/>
    </contour>
    <contour>
      <point x="872" y="1243" type="line"/>
      <point x="872" y="829" type="line"/>
      <point x="638" y="855" type="line"/>
      <point x="638" y="1243" type="line"/>
    </contour>
    <contour>
      <point x="872" y="967" type="line"/>
      <point x="872" y="759" type="line"/>
      <point x="643" y="759" type="line"/>
      <point x="414" y="759"/>
      <point x="279" y="627"/>
      <point x="279" y="465" type="curve"/>
      <point x="279" y="306"/>
      <point x="385" y="222"/>
      <point x="522" y="222" type="curve" smooth="yes"/>
      <point x="662" y="222"/>
      <point x="802" y="310"/>
      <point x="851" y="435" type="curve"/>
      <point x="931" y="416"/>
      <point x="1006" y="346"/>
      <point x="1006" y="260" type="curve"/>
      <point x="1006" y="141"/>
      <point x="847" y="31"/>
      <point x="651" y="31" type="curve" smooth="yes"/>
      <point x="345" y="31"/>
      <point x="51" y="298"/>
      <point x="51" y="587" type="curve" smooth="yes"/>
      <point x="51" y="804"/>
      <point x="215" y="967"/>
      <point x="507" y="967" type="curve"/>
    </contour>
  </outline>
</glyph>
<glyph name="ttha-deva" format="1">
  <advance width="1198"/>
  <unicode hex="0920"/>
  <outline>
    <contour>
      <point x="-36" y="1330" type="line"/>
      <point x="-53" y="1307" type="line"/>
      <point x="0" y="1137" type="line"/>
      <point x="618" y="1137" type="line"/>
      <point x="618" y="986" type="line" smooth="yes"/>
      <point x="618" y="973"/>
      <point x="611" y="966"/>
      <point x="598" y="966" type="curve" smooth="yes"/>
      <point x="493" y="966" type="line" smooth="yes"/>
      <point x="227" y="966"/>
      <point x="67" y="800"/>
      <point x="67" y="578" type="curve" smooth="yes"/>
      <point x="67" y="278"/>
      <point x="358" y="21"/>
      <point x="671" y="21" type="curve" smooth="yes"/>
      <point x="921" y="21"/>
      <point x="1095" y="186"/>
      <point x="1095" y="417" type="curve" smooth="yes"/>
      <point x="1095" y="588"/>
      <point x="992" y="743"/>
      <point x="852" y="846" type="curve"/>
      <point x="852" y="1137" type="line"/>
      <point x="1234" y="1137" type="line"/>
      <point x="1251" y="1160" type="line"/>
      <point x="1198" y="1330" type="line"/>
    </contour>
    <contour>
      <point x="756" y="759"/>
      <point x="872" y="678.905"/>
      <point x="872" y="525" type="curve" smooth="yes"/>
      <point x="872" y="352"/>
      <point x="712" y="212"/>
      <point x="539" y="212" type="curve" smooth="yes"/>
      <point x="405" y="212"/>
      <point x="289" y="296"/>
      <point x="289" y="459" type="curve" smooth="yes"/>
      <point x="289" y="626"/>
      <point x="428" y="761"/>
      <point x="621" y="760" type="curve" smooth="yes"/>
    </contour>
  </outline>
</glyph>
<glyph name="dda-deva" format="1">
  <advance width="1112"/>
  <unicode hex="0921"/>
  <outline>
    <contour>
      <point x="1112" y="1330" type="line"/>
      <point x="1172" y="1137" type="line"/>
      <point x="0" y="1137" type="line"/>
      <point x="-60" y="1330" type="line"/>
    </contour>
    <contour>
      <point x="942" y="1243" type="line"/>
      <point x="942" y="885" type="line"/>
      <point x="708" y="915" type="line"/>
      <point x="708" y="1243" type="line"/>
    </contour>
    <contour>
      <point x="386" y="9"/>
      <point x="91" y="334"/>
      <point x="91" y="538" type="curve" smooth="yes"/>
      <point x="91" y="585"/>
      <point x="107" y="615"/>
      <point x="153" y="636" type="curve"/>
      <point x="264" y="361"/>
      <point x="424" y="225"/>
      <point x="586" y="225" type="curve"/>
      <point x="724" y="225"/>
      <point x="845" y="320"/>
      <point x="845" y="427" type="curve" smooth="yes"/>
      <point x="845" y="467"/>
      <point x="828" y="489"/>
      <point x="786" y="489" type="curve" smooth="yes"/>
      <point x="749" y="489"/>
      <point x="653" y="472"/>
      <point x="601" y="472" type="curve" smooth="yes"/>
      <point x="412" y="472"/>
      <point x="184" y="701"/>
      <point x="184" y="882" type="curve" smooth="yes"/>
      <point x="184" y="975"/>
      <point x="245" y="1026"/>
      <point x="377" y="1026" type="curve"/>
      <point x="942" y="1026" type="line"/>
      <point x="942" y="835" type="line"/>
      <point x="539" y="835" type="line"/>
      <point x="430" y="835"/>
      <point x="396" y="802"/>
      <point x="396" y="755" type="curve" smooth="yes"/>
      <point x="396" y="718"/>
      <point x="418" y="690"/>
      <point x="462" y="690" type="curve" smooth="yes"/>
      <point x="501" y="690"/>
      <point x="616" y="711"/>
      <point x="671" y="711" type="curve" smooth="yes"/>
      <point x="850" y="711"/>
      <point x="1030" y="492"/>
      <point x="1030" y="298" type="curve" smooth="yes"/>
      <point x="1030" y="131"/>
      <point x="897" y="9"/>
      <point x="704" y="9" type="curve"/>
    </contour>
  </outline>
</glyph>
<glyph name="ddha-deva" format="1">
  <advance width="1088"/>
  <unicode hex="0922"/>
  <outline>
    <contour>
      <point x="1088" y="1330" type="line"/>
      <point x="1148" y="1137" type="line"/>
      <point x="0" y="1137" type="line"/>
      <point x="-60" y="1330" type="line"/>
    </contour>
    <contour>
      <point x="872" y="1243" type="line"/>
      <point x="872" y="839" type="line"/>
      <point x="638" y="865" type="line"/>
      <point x="638" y="1243" type="line"/>
    </contour>
    <contour>
      <point x="851" y="459"/>
      <point x="830" y="481"/>
      <point x="801" y="481" type="curve" smooth="yes"/>
      <point x="751" y="481"/>
      <point x="707" y="427"/>
      <point x="707" y="353" type="curve"/>
      <point x="707" y="291"/>
      <point x="739" y="225"/>
      <point x="819" y="139" type="curve"/>
      <point x="777" y="85" type="line"/>
      <point x="641" y="180"/>
      <point x="509" y="300"/>
      <point x="509" y="453" type="curve" smooth="yes"/>
      <point x="509" y="573"/>
      <point x="591" y="645"/>
      <point x="698" y="645" type="curve" smooth="yes"/>
      <point x="868" y="645"/>
      <point x="1022" y="462"/>
      <point x="1022" y="305" type="curve"/>
      <point x="1022" y="137"/>
      <point x="873" y="1"/>
      <point x="664" y="1" type="curve" smooth="yes"/>
      <point x="366" y="1"/>
      <point x="57" y="276"/>
      <point x="57" y="586" type="curve" smooth="yes"/>
      <point x="57" y="811"/>
      <point x="221" y="976"/>
      <point x="512" y="976" type="curve"/>
      <point x="872" y="976" type="line"/>
      <point x="872" y="769" type="line"/>
      <point x="643" y="769" type="line"/>
      <point x="414" y="769"/>
      <point x="279" y="633"/>
      <point x="279" y="465" type="curve"/>
      <point x="279" y="291"/>
      <point x="393" y="192"/>
      <point x="542" y="192" type="curve" smooth="yes"/>
      <point x="705" y="192"/>
      <point x="851" y="309"/>
      <point x="851" y="425" type="curve"/>
    </contour>
  </outline>
</glyph>
<glyph name="nna-deva" format="1">
  <advance width="1471"/>
  <unicode hex="0923"/>
  <outline>
    <contour>
      <point x="1471" y="1330" type="line"/>
      <point x="1531" y="1137" type="line"/>
      <point x="0" y="1137" type="line"/>
      <point x="-60" y="1330" type="line"/>
    </contour>
    <contour>
      <point x="869" y="398"/>
      <point x="736" y="281"/>
      <point x="567" y="281" type="curve" smooth="yes"/>
      <point x="345" y="281"/>
      <point x="129" y="486"/>
      <point x="129" y="725" type="curve"/>
      <point x="129" y="1243" type="line"/>
      <point x="349" y="1243" type="line"/>
      <point x="349" y="600" type="line"/>
      <point x="349" y="512"/>
      <point x="409" y="463"/>
      <point x="486" y="463" type="curve" smooth="yes"/>
      <point x="582" y="463"/>
      <point x="654" y="537"/>
      <point x="654" y="670" type="curve"/>
      <point x="654" y="1243" type="line"/>
      <point x="869" y="1243" type="line"/>
      <point x="869" y="561" type="line"/>
    </contour>
    <contour>
      <point x="1284" y="1243" type="line"/>
      <point x="1284" y="-61" type="line"/>
      <point x="1054" y="-21" type="line"/>
      <point x="1054" y="1243" type="line"/>
    </contour>
  </outline>
</glyph>
<glyph name="ta-deva" format="1">
  <advance width="1301"/>
  <unicode hex="0924"/>
  <outline>
    <contour>
      <point x="1301" y="1330" type="line"/>
      <point x="1361" y="1137" type="line"/>
      <point x="0" y="1137" type="line"/>
      <point x="-60" y="1330" type="line"/>
    </contour>
    <contour>
      <point x="1114" y="1243" type="line"/>
      <point x="1114" y="-61" type="line"/>
      <point x="874" y="-21" type="line"/>
      <point x="874" y="1243" type="line"/>
    </contour>
    <contour>
      <point x="653" y="-47"/>
      <point x="623" y="-68"/>
      <point x="586" y="-68" type="curve" smooth="yes"/>
      <point x="425" y="-68"/>
      <point x="136" y="314"/>
      <point x="136" y="620" type="curve" smooth="yes"/>
      <point x="136" y="794"/>
      <point x="230" y="893"/>
      <point x="416" y="893" type="curve"/>
      <point x="1055" y="893" type="line"/>
      <point x="1055" y="688" type="line"/>
      <point x="568" y="688" type="line"/>
      <point x="419" y="688"/>
      <point x="365" y="607"/>
      <point x="365" y="500" type="curve" smooth="yes"/>
      <point x="365" y="344"/>
      <point x="478" y="139"/>
      <point x="663" y="-10" type="curve"/>
    </contour>
  </outline>
</glyph>
<glyph name="tha-deva" format="1">
  <advance width="1401"/>
  <unicode hex="0925"/>
  <outline>
    <contour>
      <point x="182" y="1387"/>
      <point x="78" y="1315"/>
      <point x="78" y="1182" type="curve" smooth="yes"/>
      <point x="78" y="1014"/>
      <point x="244" y="886"/>
      <point x="359" y="886" type="curve" smooth="yes"/>
      <point x="412" y="886"/>
      <point x="443" y="913"/>
      <point x="459" y="932" type="curve"/>
      <point x="351" y="969"/>
      <point x="308" y="1026"/>
      <point x="308" y="1086" type="curve" smooth="yes"/>
      <point x="308" y="1154"/>
      <point x="363" y="1200"/>
      <point x="435" y="1200" type="curve" smooth="yes"/>
      <point x="512" y="1200"/>
      <point x="545" y="1146"/>
      <point x="545" y="1064" type="curve" smooth="yes"/>
      <point x="545" y="909"/>
      <point x="428" y="791"/>
      <point x="163" y="714" type="curve"/>
      <point x="151" y="688" type="line"/>
      <point x="331" y="316"/>
      <point x="602" y="151"/>
      <point x="825" y="151" type="curve" smooth="yes"/>
      <point x="877" y="151"/>
      <point x="923" y="160"/>
      <point x="965" y="176" type="curve"/>
      <point x="974" y="170" type="line"/>
      <point x="974" y="-21" type="line"/>
      <point x="1191" y="-57" type="line"/>
      <point x="1213" y="-39" type="line"/>
      <point x="1213.92" y="1137" type="line"/>
      <point x="1437" y="1137" type="line"/>
      <point x="1454" y="1160" type="line"/>
      <point x="1401" y="1330" type="line"/>
      <point x="764" y="1330" type="line"/>
      <point x="747" y="1307" type="line"/>
      <point x="800" y="1137" type="line"/>
      <point x="974" y="1137" type="line"/>
      <point x="974" y="650" type="line" smooth="yes"/>
      <point x="974" y="482"/>
      <point x="836" y="371"/>
      <point x="678" y="371" type="curve" smooth="yes"/>
      <point x="572.65" y="371"/>
      <point x="485.633" y="420.42"/>
      <point x="414.102" y="529.222" type="curve"/>
      <point x="646.666" y="612.172"/>
      <point x="765" y="746.987"/>
      <point x="765" y="923" type="curve" smooth="yes"/>
      <point x="765" y="1166"/>
      <point x="542" y="1387"/>
      <point x="313" y="1387" type="curve" smooth="yes"/>
    </contour>
  </outline>
</glyph>
<glyph name="da-deva" format="1">
  <advance width="1088"/>
  <unicode hex="0926"/>
  <outline>
    <contour>
      <point x="1088" y="1330" type="line"/>
      <point x="1148" y="1137" type="line"/>
      <point x="0" y="1137" type="line"/>
      <point x="-60" y="1330" type="line"/>
    </contour>
    <contour>
      <point x="872" y="1243" type="line"/>
      <point x="872" y="829" type="line"/>
      <point x="638" y="855" type="line"/>
      <point x="638" y="1243" type="line"/>
    </contour>
    <contour>
      <point x="885" y="171" type="line"/>
      <point x="1017" y="11"/>
      <point x="1058" y="-88"/>
      <point x="1058" y="-159" type="curve" smooth="yes"/>
      <point x="1058" y="-235"/>
      <point x="1004" y="-292"/>
      <point x="922" y="-292" type="curve" smooth="yes"/>
      <point x="835" y="-292"/>
      <point x="760" y="-236"/>
      <point x="735" y="-128" type="curve"/>
      <point x="808" y="-128"/>
      <point x="864" y="-85"/>
      <point x="864" y="-12" type="curve" smooth="yes"/>
      <point x="864" y="34"/>
      <point x="841" y="78"/>
      <point x="751" y="180" type="curve"/>
      <point x="889" y="99" type="line"/>
      <point x="826" y="58"/>
      <point x="744" y="31"/>
      <point x="647" y="31" type="curve" smooth="yes"/>
      <point x="344" y="31"/>
      <point x="57" y="292"/>
      <point x="57" y="586" type="curve" smooth="yes"/>
      <point x="57" y="789"/>
      <point x="193" y="966"/>
      <point x="512" y="966" type="curve"/>
      <point x="872" y="966" type="line"/>
      <point x="872" y="759" type="line"/>
      <point x="643" y="759" type="line" smooth="yes"/>
      <point x="414" y="759"/>
      <point x="279" y="630"/>
      <point x="279" y="457" type="curve" smooth="yes"/>
      <point x="279" y="305"/>
      <point x="383" y="219"/>
      <point x="513" y="219" type="curve" smooth="yes"/>
      <point x="574" y="219"/>
      <point x="646" y="238"/>
      <point x="698" y="271" type="curve"/>
      <point x="695" y="233" type="line"/>
      <point x="654" y="275"/>
      <point x="629" y="314"/>
      <point x="629" y="364" type="curve" smooth="yes"/>
      <point x="629" y="438"/>
      <point x="685" y="499"/>
      <point x="774" y="499" type="curve" smooth="yes"/>
      <point x="894" y="499"/>
      <point x="985" y="389"/>
      <point x="985" y="280" type="curve" smooth="yes"/>
      <point x="985" y="207"/>
      <point x="944" y="142"/>
      <point x="891" y="103" type="curve"/>
    </contour>
  </outline>
</glyph>
<glyph name="dha-deva" format="1">
  <advance width="1375"/>
  <unicode hex="0927"/>
  <outline>
    <contour>
      <point x="195" y="1387"/>
      <point x="100" y="1280"/>
      <point x="100" y="1149" type="curve" smooth="yes"/>
      <point x="100" y="1009.93"/>
      <point x="205.103" y="876.517"/>
      <point x="361.364" y="777.637" type="curve"/>
      <point x="311.372" y="719.455"/>
      <point x="283" y="649.217"/>
      <point x="283" y="578" type="curve" smooth="yes"/>
      <point x="283" y="341"/>
      <point x="539" y="131"/>
      <point x="801" y="131" type="curve" smooth="yes"/>
      <point x="850" y="131"/>
      <point x="897" y="139"/>
      <point x="939" y="154" type="curve"/>
      <point x="948" y="148" type="line"/>
      <point x="948" y="-21" type="line"/>
      <point x="1166" y="-57" type="line"/>
      <point x="1188" y="-39" type="line"/>
      <point x="1188" y="1137" type="line"/>
      <point x="1411" y="1137" type="line"/>
      <point x="1428" y="1160" type="line"/>
      <point x="1375" y="1330" type="line"/>
      <point x="738" y="1330" type="line"/>
      <point x="721" y="1307" type="line"/>
      <point x="774" y="1137" type="line"/>
      <point x="948" y="1137" type="line"/>
      <point x="948" y="580" type="line" smooth="yes"/>
      <point x="948" y="403"/>
      <point x="773" y="321"/>
      <point x="651" y="321" type="curve" smooth="yes"/>
      <point x="550" y="321"/>
      <point x="495" y="371"/>
      <point x="495" y="462" type="curve" smooth="yes"/>
      <point x="495" y="555"/>
      <point x="601" y="679"/>
      <point x="808" y="715" type="curve"/>
      <point x="818" y="741" type="line"/>
      <point x="640" y="918" type="line"/>
      <point x="567.219" y="910.104"/>
      <point x="502.334" y="886.532"/>
      <point x="448.503" y="852.465" type="curve"/>
      <point x="369.297" y="916.386"/>
      <point x="336" y="985.669"/>
      <point x="336" y="1047" type="curve" smooth="yes"/>
      <point x="336" y="1135"/>
      <point x="388" y="1189"/>
      <point x="447" y="1189" type="curve" smooth="yes"/>
      <point x="515" y="1189"/>
      <point x="553" y="1132"/>
      <point x="553" y="1037" type="curve"/>
      <point x="589" y="1037"/>
      <point x="631" y="1064"/>
      <point x="631" y="1138" type="curve" smooth="yes"/>
      <point x="631" y="1263"/>
      <point x="522" y="1387"/>
      <point x="354" y="1387" type="curve" smooth="yes"/>
    </contour>
  </outline>
</glyph>
<glyph name="na-deva" format="1">
  <advance width="1181"/>
  <unicode hex="0928"/>
  <outline>
    <contour>
      <point x="1181" y="1330" type="line"/>
      <point x="1241" y="1137" type="line"/>
      <point x="0" y="1137" type="line"/>
      <point x="-60" y="1330" type="line"/>
    </contour>
    <contour>
      <point x="994" y="1243" type="line"/>
      <point x="994" y="-61" type="line"/>
      <point x="754" y="-21" type="line"/>
      <point x="754" y="1243" type="line"/>
    </contour>
    <contour>
      <point x="855" y="833" type="line"/>
      <point x="855" y="628" type="line"/>
      <point x="428" y="628" type="line"/>
      <point x="428" y="473" type="line" smooth="yes"/>
      <point x="428" y="417"/>
      <point x="401" y="394"/>
      <point x="355" y="394" type="curve"/>
      <point x="266" y="394"/>
      <point x="45" y="621"/>
      <point x="45" y="717" type="curve"/>
      <point x="45" y="799"/>
      <point x="82" y="833"/>
      <point x="236" y="833" type="curve"/>
    </contour>
  </outline>
</glyph>
<glyph name="pa-deva" format="1">
  <advance width="1171"/>
  <unicode hex="092A"/>
  <outline>
    <contour>
      <point x="-36" y="1330" type="line"/>
      <point x="-53" y="1307" type="line"/>
      <point x="0" y="1137" type="line"/>
      <point x="129" y="1137" type="line"/>
      <point x="129" y="725" type="line" smooth="yes"/>
      <point x="129" y="476"/>
      <point x="338" y="261"/>
      <point x="567" y="261" type="curve" smooth="yes"/>
      <point x="622" y="261"/>
      <point x="681" y="273"/>
      <point x="735" y="296" type="curve"/>
      <point x="744" y="290" type="line"/>
      <point x="744" y="-21" type="line"/>
      <point x="962" y="-57" type="line"/>
      <point x="984" y="-39" type="line"/>
      <point x="984" y="1137" type="line"/>
      <point x="1207" y="1137" type="line"/>
      <point x="1224" y="1160" type="line"/>
      <point x="1171" y="1330" type="line"/>
    </contour>
    <contour>
      <point x="744" y="720" type="line" smooth="yes"/>
      <point x="744" y="570"/>
      <point x="619" y="453"/>
      <point x="496" y="453" type="curve" smooth="yes"/>
      <point x="408" y="453"/>
      <point x="359" y="512"/>
      <point x="359" y="620" type="curve" smooth="yes"/>
      <point x="359" y="1137" type="line"/>
      <point x="744" y="1137" type="line"/>
    </contour>
  </outline>
</glyph>
<glyph name="pha-deva" format="1">
  <advance width="1560"/>
  <unicode hex="092B"/>
  <outline>
    <contour>
      <point x="-36" y="1330" type="line"/>
      <point x="-53" y="1307" type="line"/>
      <point x="0" y="1137" type="line"/>
      <point x="129" y="1137" type="line"/>
      <point x="129" y="715" type="line" smooth="yes"/>
      <point x="129" y="476"/>
      <point x="343" y="271"/>
      <point x="558" y="271" type="curve" smooth="yes"/>
      <point x="597" y="271"/>
      <point x="637" y="278"/>
      <point x="675" y="291" type="curve"/>
      <point x="684" y="285" type="line"/>
      <point x="684" y="-20.9999" type="line"/>
      <point x="892" y="-56.9999" type="line"/>
      <point x="914" y="-38.9999" type="line"/>
      <point x="914" y="518" type="line" smooth="yes"/>
      <point x="914" y="671"/>
      <point x="1045" y="775"/>
      <point x="1158" y="775" type="curve" smooth="yes"/>
      <point x="1223" y="775"/>
      <point x="1261" y="740"/>
      <point x="1261" y="675" type="curve" smooth="yes"/>
      <point x="1261" y="521"/>
      <point x="1174" y="367"/>
      <point x="1047" y="293" type="curve"/>
      <point x="1107" y="206"/>
      <point x="1181" y="170"/>
      <point x="1243" y="170" type="curve" smooth="yes"/>
      <point x="1349" y="170"/>
      <point x="1466" y="277"/>
      <point x="1466" y="498" type="curve" smooth="yes"/>
      <point x="1466" y="785"/>
      <point x="1270" y="962"/>
      <point x="1065" y="962" type="curve" smooth="yes"/>
      <point x="1014" y="962"/>
      <point x="966" y="949"/>
      <point x="924" y="923" type="curve"/>
      <point x="914" y="929" type="line"/>
      <point x="914" y="1137" type="line"/>
      <point x="1596" y="1137" type="line"/>
      <point x="1613" y="1160" type="line"/>
      <point x="1560" y="1330" type="line"/>
    </contour>
    <contour>
      <point x="684" y="710" type="line" smooth="yes"/>
      <point x="684" y="572"/>
      <point x="565" y="463"/>
      <point x="461" y="463" type="curve" smooth="yes"/>
      <point x="398" y="463"/>
      <point x="369" y="503"/>
      <point x="369" y="590" type="curve" smooth="yes"/>
      <point x="369" y="1137" type="line"/>
      <point x="684" y="1137" type="line"/>
    </contour>
  </outline>
</glyph>
<glyph name="ba-deva" format="1">
  <advance width="1230"/>
  <unicode hex="092C"/>
  <outline>
    <contour>
      <point x="320" y="847" type="line"/>
      <point x="879" y="387" type="line"/>
      <point x="698" y="367" type="line"/>
      <point x="139" y="817" type="line"/>
    </contour>
    <component base="va-deva"/>
  </outline>
</glyph>
<glyph name="bha-deva" format="1">
  <advance width="1493"/>
  <unicode hex="092D"/>
  <outline>
    <contour>
      <point x="1493" y="1330" type="line"/>
      <point x="1553" y="1137" type="line"/>
      <point x="804" y="1137" type="line"/>
      <point x="744" y="1330" type="line"/>
    </contour>
    <contour>
      <point x="1247" y="643" type="line"/>
      <point x="1247" y="438" type="line"/>
      <point x="735" y="438" type="line"/>
      <point x="735" y="293" type="line" smooth="yes"/>
      <point x="735" y="238"/>
      <point x="710" y="214"/>
      <point x="677" y="214" type="curve" smooth="yes"/>
      <point x="584" y="214"/>
      <point x="352" y="400"/>
      <point x="352" y="546" type="curve" smooth="yes"/>
      <point x="352" y="630"/>
      <point x="429" y="643"/>
      <point x="533" y="643" type="curve" smooth="yes"/>
    </contour>
    <contour>
      <point x="1306" y="1243" type="line"/>
      <point x="1306" y="-61" type="line"/>
      <point x="1066" y="-21" type="line"/>
      <point x="1066" y="1243" type="line"/>
    </contour>
    <contour>
      <point x="497" y="1140"/>
      <point x="480" y="1200"/>
      <point x="408" y="1200" type="curve" smooth="yes"/>
      <point x="350" y="1200"/>
      <point x="318" y="1161"/>
      <point x="318" y="1101" type="curve" smooth="yes"/>
      <point x="318" y="1038"/>
      <point x="353" y="989"/>
      <point x="459" y="932" type="curve"/>
      <point x="441" y="914"/>
      <point x="413" y="896"/>
      <point x="369" y="896" type="curve" smooth="yes"/>
      <point x="259" y="896"/>
      <point x="98" y="1019"/>
      <point x="98" y="1193" type="curve" smooth="yes"/>
      <point x="98" y="1305"/>
      <point x="165" y="1387"/>
      <point x="295" y="1387" type="curve" smooth="yes"/>
      <point x="525" y="1387"/>
      <point x="735" y="1156"/>
      <point x="735" y="913" type="curve" smooth="yes"/>
      <point x="735" y="473" type="line"/>
      <point x="497" y="573" type="line"/>
      <point x="497" y="1069" type="line" smooth="yes"/>
    </contour>
  </outline>
</glyph>
<glyph name="ma-deva" format="1">
  <advance width="1246"/>
  <unicode hex="092E"/>
  <outline>
    <contour>
      <point x="1246" y="1330" type="line"/>
      <point x="1306" y="1137" type="line"/>
      <point x="0" y="1137" type="line"/>
      <point x="-60" y="1330" type="line"/>
    </contour>
    <contour>
      <point x="438" y="1270" type="line"/>
      <point x="438" y="533" type="line"/>
      <point x="200" y="573" type="line"/>
      <point x="200" y="1270" type="line"/>
    </contour>
    <contour>
      <point x="1000" y="623" type="line"/>
      <point x="1000" y="418" type="line"/>
      <point x="438" y="418" type="line"/>
      <point x="438" y="273" type="line" smooth="yes"/>
      <point x="438" y="217"/>
      <point x="415" y="194"/>
      <point x="375" y="194" type="curve"/>
      <point x="287" y="194"/>
      <point x="55" y="389"/>
      <point x="55" y="517" type="curve"/>
      <point x="55" y="592"/>
      <point x="90" y="623"/>
      <point x="236" y="623" type="curve"/>
    </contour>
    <contour>
      <point x="1059" y="1243" type="line"/>
      <point x="1059" y="-61" type="line"/>
      <point x="819" y="-21" type="line"/>
      <point x="819" y="1243" type="line"/>
    </contour>
  </outline>
</glyph>
<glyph name="ya-deva" format="1">
  <advance width="1348"/>
  <unicode hex="092F"/>
  <outline>
    <contour>
      <point x="-36" y="1330" type="line"/>
      <point x="-53" y="1307" type="line"/>
      <point x="0" y="1137" type="line"/>
      <point x="398.113" y="1137" type="line"/>
      <point x="412.132" y="1100.54"/>
      <point x="422" y="1058.03"/>
      <point x="422" y="1013" type="curve" smooth="yes"/>
      <point x="422" y="894"/>
      <point x="354" y="816"/>
      <point x="139" y="754" type="curve"/>
      <point x="127" y="728" type="line"/>
      <point x="298" y="331"/>
      <point x="550" y="171"/>
      <point x="772" y="171" type="curve" smooth="yes"/>
      <point x="824" y="171"/>
      <point x="870" y="180"/>
      <point x="912" y="195" type="curve"/>
      <point x="921" y="189" type="line"/>
      <point x="921" y="-21" type="line"/>
      <point x="1138" y="-57" type="line"/>
      <point x="1160" y="-39" type="line"/>
      <point x="1160.92" y="1137" type="line"/>
      <point x="1384" y="1137" type="line"/>
      <point x="1401" y="1160" type="line"/>
      <point x="1348" y="1330" type="line"/>
    </contour>
    <contour>
      <point x="921" y="660" type="line" smooth="yes"/>
      <point x="921" y="498"/>
      <point x="775" y="391"/>
      <point x="642" y="391" type="curve" smooth="yes"/>
      <point x="544.892" y="391"/>
      <point x="453.443" y="447.593"/>
      <point x="387.281" y="568.048" type="curve"/>
      <point x="550.895" y="627.771"/>
      <point x="642" y="723.906"/>
      <point x="642" y="858" type="curve" smooth="yes"/>
      <point x="642" y="941"/>
      <point x="607" y="1042"/>
      <point x="554" y="1127" type="curve"/>
      <point x="560" y="1137" type="line"/>
      <point x="921" y="1137" type="line"/>
    </contour>
  </outline>
</glyph>
<glyph name="ra-deva" format="1">
  <advance width="946"/>
  <unicode hex="0930"/>
  <outline>
    <contour>
      <point x="-36" y="1330" type="line"/>
      <point x="-53" y="1307" type="line"/>
      <point x="0" y="1137" type="line"/>
      <point x="481.316" y="1137" type="line"/>
      <point x="509.756" y="1064.45"/>
      <point x="523" y="993.522"/>
      <point x="523" y="933" type="curve" smooth="yes"/>
      <point x="523" y="834.133"/>
      <point x="487.749" y="765.726"/>
      <point x="399.63" y="721.371" type="curve"/>
      <point x="329.767" y="761.541"/>
      <point x="262.305" y="779"/>
      <point x="213" y="779" type="curve" smooth="yes"/>
      <point x="125" y="779"/>
      <point x="78" y="725"/>
      <point x="78" y="648" type="curve" smooth="yes"/>
      <point x="78" y="429"/>
      <point x="463" y="-52"/>
      <point x="700" y="-52" type="curve" smooth="yes"/>
      <point x="774" y="-52"/>
      <point x="825" y="-6"/>
      <point x="843" y="65.9999" type="curve"/>
      <point x="635.693" y="159.57"/>
      <point x="483.693" y="264.202"/>
      <point x="353.934" y="427.133" type="curve"/>
      <point x="635.08" y="481.147"/>
      <point x="737" y="627.435"/>
      <point x="737" y="799" type="curve" smooth="yes"/>
      <point x="737" y="907"/>
      <point x="697" y="1023"/>
      <point x="644" y="1128" type="curve"/>
      <point x="650" y="1137" type="line"/>
      <point x="982" y="1137" type="line"/>
      <point x="999" y="1160" type="line"/>
      <point x="946" y="1330" type="line"/>
    </contour>
  </outline>
</glyph>
<glyph name="rra-deva" format="1">
  <advance width="946"/>
  <unicode hex="0931"/>
  <outline>
    <contour>
      <point x="67" y="202"/>
      <point x="10" y="145"/>
      <point x="10" y="76" type="curve" smooth="yes"/>
      <point x="10" y="7"/>
      <point x="67" y="-50"/>
      <point x="137" y="-50" type="curve" smooth="yes"/>
      <point x="206" y="-50"/>
      <point x="262" y="7"/>
      <point x="262" y="76" type="curve" smooth="yes"/>
      <point x="262" y="145"/>
      <point x="206" y="202"/>
      <point x="137" y="202" type="curve" smooth="yes"/>
    </contour>
    <component base="ra-deva"/>
  </outline>
</glyph>
<glyph name="la-deva" format="1">
  <advance width="1441"/>
  <unicode hex="0932"/>
  <outline>
    <contour>
      <point x="1441" y="1330" type="line"/>
      <point x="1501" y="1137" type="line"/>
      <point x="-30" y="1137" type="line"/>
      <point x="-90" y="1330" type="line"/>
    </contour>
    <contour>
      <point x="1254" y="1243" type="line"/>
      <point x="1254" y="-61" type="line"/>
      <point x="1014" y="-21" type="line"/>
      <point x="1014" y="1243" type="line"/>
    </contour>
    <contour>
      <point x="666" y="-50"/>
      <point x="628" y="-78"/>
      <point x="584" y="-78" type="curve" smooth="yes"/>
      <point x="423" y="-78"/>
      <point x="81" y="296"/>
      <point x="81" y="629" type="curve"/>
      <point x="81" y="797"/>
      <point x="183" y="916"/>
      <point x="349" y="916" type="curve"/>
      <point x="528" y="916"/>
      <point x="681" y="797"/>
      <point x="798" y="613" type="curve"/>
      <point x="728" y="478" type="line"/>
      <point x="645" y="638"/>
      <point x="573" y="708"/>
      <point x="491" y="708" type="curve"/>
      <point x="391" y="708"/>
      <point x="318" y="622"/>
      <point x="318" y="506" type="curve" smooth="yes"/>
      <point x="318" y="349"/>
      <point x="452" y="141"/>
      <point x="681" y="-6" type="curve"/>
    </contour>
    <contour>
      <point x="533" y="502" type="line"/>
      <point x="602" y="740"/>
      <point x="785" y="886"/>
      <point x="1035" y="899" type="curve"/>
      <point x="1208" y="730" type="line"/>
      <point x="947" y="714"/>
      <point x="815" y="593"/>
      <point x="753" y="352" type="curve"/>
    </contour>
  </outline>
</glyph>
<glyph name="lla-deva" format="1">
  <advance width="1511"/>
  <unicode hex="0933"/>
  <outline>
    <contour>
      <point x="-36" y="1330" type="line"/>
      <point x="-53" y="1307" type="line"/>
      <point x="0" y="1137" type="line"/>
      <point x="924" y="1137" type="line"/>
      <point x="924" y="863.673" type="line"/>
      <point x="848.61" y="846.742"/>
      <point x="799.252" y="795.514"/>
      <point x="743.963" y="706.218" type="curve"/>
      <point x="612.156" y="824.272"/>
      <point x="493.078" y="880"/>
      <point x="374" y="880" type="curve" smooth="yes"/>
      <point x="186" y="880"/>
      <point x="56" y="740"/>
      <point x="56" y="556" type="curve" smooth="yes"/>
      <point x="56" y="305"/>
      <point x="299" y="72"/>
      <point x="531" y="72" type="curve" smooth="yes"/>
      <point x="658.268" y="72"/>
      <point x="725.047" y="141.988"/>
      <point x="785.77" y="243.791" type="curve"/>
      <point x="910.469" y="129.022"/>
      <point x="1032.33" y="62"/>
      <point x="1158" y="62" type="curve" smooth="yes"/>
      <point x="1339" y="62"/>
      <point x="1465" y="200"/>
      <point x="1465" y="383" type="curve" smooth="yes"/>
      <point x="1465" y="575.469"/>
      <point x="1325.52" y="756.941"/>
      <point x="1154" y="832.76" type="curve"/>
      <point x="1154" y="1137" type="line"/>
      <point x="1547" y="1137" type="line"/>
      <point x="1564" y="1160" type="line"/>
      <point x="1511" y="1330" type="line"/>
    </contour>
    <contour>
      <point x="560.4" y="669"/>
      <point x="622.384" y="646.04"/>
      <point x="683.211" y="599.872" type="curve"/>
      <point x="660" y="557" type="line" smooth="yes"/>
      <point x="563" y="377"/>
      <point x="509" y="278"/>
      <point x="405" y="278" type="curve" smooth="yes"/>
      <point x="324" y="278"/>
      <point x="280" y="337"/>
      <point x="280" y="428" type="curve" smooth="yes"/>
      <point x="280" y="554"/>
      <point x="365" y="669"/>
      <point x="500" y="669" type="curve" smooth="yes"/>
    </contour>
    <contour>
      <point x="1204" y="659"/>
      <point x="1241" y="598"/>
      <point x="1241" y="510" type="curve" smooth="yes"/>
      <point x="1241" y="376"/>
      <point x="1155" y="267"/>
      <point x="1026" y="267" type="curve" smooth="yes"/>
      <point x="964.821" y="267"/>
      <point x="902.757" y="291.765"/>
      <point x="842.161" y="346.586" type="curve"/>
      <point x="862" y="384" type="line" smooth="yes"/>
      <point x="965" y="577"/>
      <point x="1027" y="659"/>
      <point x="1122" y="659" type="curve" smooth="yes"/>
    </contour>
  </outline>
</glyph>
<glyph name="va-deva" format="1">
  <advance width="1230"/>
  <unicode hex="0935"/>
  <outline>
    <contour>
      <point x="-36" y="1330" type="line"/>
      <point x="-53" y="1307" type="line"/>
      <point x="0" y="1137" type="line"/>
      <point x="813" y="1137" type="line"/>
      <point x="813" y="899" type="line"/>
      <point x="803" y="894" type="line"/>
      <point x="709" y="965"/>
      <point x="586" y="997"/>
      <point x="478" y="997" type="curve" smooth="yes"/>
      <point x="254" y="997"/>
      <point x="89" y="861"/>
      <point x="89" y="656" type="curve" smooth="yes"/>
      <point x="89" y="389"/>
      <point x="370" y="149"/>
      <point x="615" y="149" type="curve" smooth="yes"/>
      <point x="681" y="149"/>
      <point x="747" y="167"/>
      <point x="803" y="198" type="curve"/>
      <point x="813" y="192" type="line"/>
      <point x="813" y="-21" type="line"/>
      <point x="1021" y="-57" type="line"/>
      <point x="1043" y="-39" type="line"/>
      <point x="1043" y="1137" type="line"/>
      <point x="1266" y="1137" type="line"/>
      <point x="1283" y="1160" type="line"/>
      <point x="1230" y="1330" type="line"/>
    </contour>
    <contour>
      <point x="719" y="783"/>
      <point x="813" y="705"/>
      <point x="813" y="632" type="curve" smooth="yes"/>
      <point x="813" y="608" type="line" smooth="yes"/>
      <point x="813" y="454"/>
      <point x="693" y="348"/>
      <point x="549" y="348" type="curve" smooth="yes"/>
      <point x="415" y="348"/>
      <point x="318" y="440"/>
      <point x="318" y="560" type="curve" smooth="yes"/>
      <point x="318" y="688"/>
      <point x="430" y="783"/>
      <point x="582" y="783" type="curve" smooth="yes"/>
    </contour>
  </outline>
</glyph>
<glyph name="sha-deva" format="1">
  <advance width="1551"/>
  <unicode hex="0936"/>
  <outline>
    <contour>
      <point x="-36" y="1330" type="line"/>
      <point x="-53" y="1307" type="line"/>
      <point x="0" y="1137" type="line"/>
      <point x="241.724" y="1137" type="line"/>
      <point x="239.265" y="1121.06"/>
      <point x="238" y="1104.06"/>
      <point x="238" y="1086" type="curve" smooth="yes"/>
      <point x="238" y="923.729"/>
      <point x="339.773" y="783.834"/>
      <point x="576.434" y="663.861" type="curve"/>
      <point x="533.412" y="616.88"/>
      <point x="479.533" y="575.526"/>
      <point x="414.708" y="543.919" type="curve"/>
      <point x="351.857" y="612.379"/>
      <point x="280.386" y="645"/>
      <point x="212" y="645" type="curve" smooth="yes"/>
      <point x="128" y="645"/>
      <point x="75.9998" y="595"/>
      <point x="75.9998" y="518" type="curve" smooth="yes"/>
      <point x="75.9998" y="404.25"/>
      <point x="191.73" y="312.506"/>
      <point x="379.045" y="297.948" type="curve"/>
      <point x="514.314" y="48.0054"/>
      <point x="670.368" y="-65"/>
      <point x="824" y="-65" type="curve" smooth="yes"/>
      <point x="926" y="-65"/>
      <point x="980" y="-15"/>
      <point x="980" y="62.9997" type="curve" smooth="yes"/>
      <point x="980" y="110"/>
      <point x="961" y="150"/>
      <point x="907" y="211" type="curve"/>
      <point x="859" y="183"/>
      <point x="807" y="165"/>
      <point x="749" y="165" type="curve" smooth="yes"/>
      <point x="672.196" y="165"/>
      <point x="590.13" y="195.704"/>
      <point x="529.914" y="320.382" type="curve"/>
      <point x="821.616" y="428.912"/>
      <point x="927.95" y="663.117"/>
      <point x="925" y="848" type="curve" smooth="yes"/>
      <point x="923" y="953"/>
      <point x="887" y="1050"/>
      <point x="828" y="1127" type="curve"/>
      <point x="833" y="1137" type="line"/>
      <point x="1124" y="1137" type="line"/>
      <point x="1124" y="-21" type="line"/>
      <point x="1342" y="-57" type="line"/>
      <point x="1364" y="-39" type="line"/>
      <point x="1364" y="1137" type="line"/>
      <point x="1587" y="1137" type="line"/>
      <point x="1604" y="1160" type="line"/>
      <point x="1551" y="1330" type="line"/>
    </contour>
    <contour>
      <point x="662" y="1145"/>
      <point x="708" y="1097"/>
      <point x="708" y="980" type="curve" smooth="yes"/>
      <point x="708" y="911"/>
      <point x="689" y="837"/>
      <point x="649.814" y="767.427" type="curve"/>
      <point x="520" y="840"/>
      <point x="468" y="913"/>
      <point x="468" y="1003" type="curve" smooth="yes"/>
      <point x="468" y="1085"/>
      <point x="512" y="1145"/>
      <point x="594" y="1145" type="curve" smooth="yes"/>
    </contour>
  </outline>
</glyph>
<glyph name="ssa-deva" format="1">
  <advance width="1171"/>
  <unicode hex="0937"/>
  <outline>
    <contour>
      <point x="333" y="1243" type="line"/>
      <point x="842" y="543" type="line"/>
      <point x="689" y="513" type="line"/>
      <point x="180" y="1213" type="line"/>
    </contour>
    <component base="pa-deva"/>
  </outline>
</glyph>
<glyph name="sa-deva" format="1">
  <advance width="1420"/>
  <unicode hex="0938"/>
  <outline>
    <contour>
      <point x="1420" y="1330" type="line"/>
      <point x="1480" y="1137" type="line"/>
      <point x="0" y="1137" type="line"/>
      <point x="-60" y="1330" type="line"/>
    </contour>
    <contour>
      <point x="474" y="1257" type="line"/>
      <point x="608" y="1056"/>
      <point x="669" y="882"/>
      <point x="669" y="759" type="curve" smooth="yes"/>
      <point x="669" y="612"/>
      <point x="582" y="461"/>
      <point x="339" y="420" type="curve"/>
      <point x="198" y="655" type="line"/>
      <point x="374" y="693"/>
      <point x="453" y="759"/>
      <point x="453" y="900" type="curve" smooth="yes"/>
      <point x="453" y="992"/>
      <point x="419" y="1095"/>
      <point x="353" y="1236" type="curve"/>
    </contour>
    <contour>
      <point x="388" y="789"/>
      <point x="540" y="688"/>
      <point x="583" y="615" type="curve"/>
      <point x="322" y="535" type="line"/>
      <point x="404" y="292"/>
      <point x="596" y="97"/>
      <point x="785" y="6" type="curve"/>
      <point x="785" y="-32"/>
      <point x="747" y="-71"/>
      <point x="690" y="-71" type="curve" smooth="yes"/>
      <point x="506" y="-71"/>
      <point x="112" y="344"/>
      <point x="112" y="628" type="curve" smooth="yes"/>
      <point x="112" y="746"/>
      <point x="181" y="789"/>
      <point x="263" y="789" type="curve" smooth="yes"/>
    </contour>
    <contour>
      <point x="1232" y="1243" type="line"/>
      <point x="1232" y="-61" type="line"/>
      <point x="992" y="-21" type="line"/>
      <point x="992" y="1243" type="line"/>
    </contour>
    <contour>
      <point x="576" y="655"/>
      <point x="670" y="636"/>
      <point x="743" y="636" type="curve" smooth="yes"/>
      <point x="888" y="636"/>
      <point x="992" y="710"/>
      <point x="992" y="847" type="curve"/>
      <point x="1185" y="588" type="line"/>
      <point x="1099" y="483"/>
      <point x="1003" y="453"/>
      <point x="897" y="453" type="curve" smooth="yes"/>
      <point x="769" y="453"/>
      <point x="591" y="496"/>
      <point x="448" y="605" type="curve"/>
      <point x="491" y="715" type="line"/>
    </contour>
  </outline>
</glyph>
<glyph name="ha-deva" format="1">
  <advance width="1066"/>
  <unicode hex="0939"/>
  <outline>
    <contour>
      <point x="-36" y="1330" type="line"/>
      <point x="-53" y="1307" type="line"/>
      <point x="0" y="1137" type="line"/>
      <point x="648" y="1137" type="line"/>
      <point x="648" y="1036" type="line" smooth="yes"/>
      <point x="648" y="1023"/>
      <point x="641" y="1016"/>
      <point x="628" y="1016" type="curve" smooth="yes"/>
      <point x="297" y="1016" type="line" smooth="yes"/>
      <point x="159" y="1016"/>
      <point x="94" y="939"/>
      <point x="94" y="837" type="curve" smooth="yes"/>
      <point x="94" y="742.327"/>
      <point x="150.248" y="654.513"/>
      <point x="230.272" y="587.784" type="curve"/>
      <point x="175.227" y="531.914"/>
      <point x="143" y="456.317"/>
      <point x="143" y="365" type="curve" smooth="yes"/>
      <point x="143" y="49"/>
      <point x="470" y="-197"/>
      <point x="758" y="-197" type="curve" smooth="yes"/>
      <point x="888" y="-197"/>
      <point x="928" y="-147"/>
      <point x="928" y="-71.9999" type="curve"/>
      <point x="574" y="-71.9999"/>
      <point x="373" y="77"/>
      <point x="373" y="264" type="curve" smooth="yes"/>
      <point x="373" y="418"/>
      <point x="510" y="516"/>
      <point x="657" y="516" type="curve" smooth="yes"/>
      <point x="747" y="516"/>
      <point x="778" y="479"/>
      <point x="778" y="432" type="curve" smooth="yes"/>
      <point x="778" y="374"/>
      <point x="729" y="322"/>
      <point x="618" y="278" type="curve"/>
      <point x="644" y="198"/>
      <point x="724" y="145"/>
      <point x="806" y="145" type="curve" smooth="yes"/>
      <point x="897" y="145"/>
      <point x="968" y="210"/>
      <point x="968" y="327" type="curve" smooth="yes"/>
      <point x="968" y="510"/>
      <point x="786" y="697"/>
      <point x="527" y="697" type="curve" smooth="yes"/>
      <point x="455.599" y="697"/>
      <point x="390.097" y="683.728"/>
      <point x="334.185" y="658.757" type="curve"/>
      <point x="324.307" y="678.126"/>
      <point x="319" y="698.569"/>
      <point x="319" y="720" type="curve" smooth="yes"/>
      <point x="319" y="777"/>
      <point x="357" y="835"/>
      <point x="459" y="835" type="curve" smooth="yes"/>
      <point x="862" y="835" type="line"/>
      <point x="882" y="855" type="line"/>
      <point x="882" y="1137" type="line"/>
      <point x="1102" y="1137" type="line"/>
      <point x="1119" y="1160" type="line"/>
      <point x="1066" y="1330" type="line"/>
    </contour>
  </outline>
</glyph>
<glyph name="nukta-deva" format="1">
  <advance width="0"/>
  <unicode hex="093C"/>
  <outline>
    <contour>
      <point x="-649" y="-76"/>
      <point x="-593" y="-19"/>
      <point x="-593" y="50" type="curve" smooth="yes"/>
      <point x="-593" y="119"/>
      <point x="-649" y="176"/>
      <point x="-718" y="176" type="curve" smooth="yes"/>
      <point x="-788" y="176"/>
      <point x="-845" y="119"/>
      <point x="-845" y="50" type="curve" smooth="yes"/>
      <point x="-845" y="-19"/>
      <point x="-788" y="-76"/>
      <point x="-718" y="-76" type="curve" smooth="yes"/>
    </contour>
  </outline>
</glyph>
<glyph name="avagraha-deva" format="1">
  <advance width="653"/>
  <unicode hex="093D"/>
  <outline>
    <contour>
      <point x="706" y="1160" type="line"/>
      <point x="653" y="1330" type="line"/>
      <point x="-36" y="1330" type="line"/>
      <point x="-53" y="1307" type="line"/>
      <point x="0" y="1137" type="line"/>
      <point x="206" y="1137" type="line"/>
      <point x="206" y="-21" type="line"/>
      <point x="424" y="-57" type="line"/>
      <point x="446" y="-39" type="line"/>
      <point x="446" y="1137" type="line"/>
      <point x="689" y="1137" type="line"/>
    </contour>
  </outline>
</glyph>
<glyph name="uuMatra-deva" format="1">
  <advance width="0"/>
  <unicode hex="0942"/>
  <outline>
    <contour>
      <point x="-510" y="-79"/>
      <point x="-635" y="-166"/>
      <point x="-635" y="-317" type="curve" smooth="yes"/>
      <point x="-635" y="-481"/>
      <point x="-487" y="-647"/>
      <point x="-289" y="-647" type="curve" smooth="yes"/>
      <point x="-160" y="-647"/>
      <point x="-92" y="-577"/>
      <point x="-92" y="-505" type="curve"/>
      <point x="-92" y="-441"/>
      <point x="-141" y="-376"/>
      <point x="-243" y="-364" type="curve"/>
      <point x="-301" y="-435"/>
      <point x="-352" y="-460"/>
      <point x="-392" y="-460" type="curve" smooth="yes"/>
      <point x="-432" y="-460"/>
      <point x="-451" y="-434"/>
      <point x="-451" y="-399" type="curve" smooth="yes"/>
      <point x="-451" y="-331"/>
      <point x="-382" y="-286"/>
      <point x="-282" y="-286" type="curve" smooth="yes"/>
      <point x="-147" y="-286"/>
      <point x="-5" y="-367"/>
      <point x="155" y="-559" type="curve"/>
      <point x="196" y="-548"/>
      <point x="220" y="-519"/>
      <point x="220" y="-486" type="curve" smooth="yes"/>
      <point x="220" y="-366"/>
      <point x="-94" y="-79"/>
      <point x="-362" y="-79" type="curve" smooth="yes"/>
    </contour>
  </outline>
</glyph>
<glyph name="rVocalicMatra-deva" format="1">
  <advance width="0"/>
  <unicode hex="0943"/>
  <outline>
    <contour>
      <point x="-377" y="-114"/>
      <point x="-420" y="-183"/>
      <point x="-420" y="-234" type="curve" smooth="yes"/>
      <point x="-420" y="-274"/>
      <point x="-399" y="-300"/>
      <point x="-350" y="-300" type="curve" smooth="yes"/>
      <point x="-268" y="-300"/>
      <point x="-153" y="-229"/>
      <point x="-104" y="-171" type="curve"/>
      <point x="-29" y="-197"/>
      <point x="30" y="-266"/>
      <point x="30" y="-330" type="curve" smooth="yes"/>
      <point x="30" y="-420"/>
      <point x="-87" y="-478"/>
      <point x="-214" y="-478" type="curve" smooth="yes"/>
      <point x="-443" y="-478"/>
      <point x="-619" y="-289"/>
      <point x="-619" y="-146" type="curve" smooth="yes"/>
      <point x="-619" y="-48"/>
      <point x="-537" y="46"/>
      <point x="-347" y="96" type="curve"/>
      <point x="-187" y="-61" type="line"/>
    </contour>
  </outline>
</glyph>
<glyph name="rrVocalicMatra-deva" format="1">
  <advance width="0"/>
  <unicode hex="0944"/>
  <outline>
    <contour>
      <point x="-584" y="35"/>
      <point x="-654" y="-71"/>
      <point x="-654" y="-157" type="curve" smooth="yes"/>
      <point x="-654" y="-234.898"/>
      <point x="-605.44" y="-313.73"/>
      <point x="-524.273" y="-367.652" type="curve"/>
      <point x="-543.352" y="-395.639"/>
      <point x="-551" y="-422.555"/>
      <point x="-551" y="-451" type="curve" smooth="yes"/>
      <point x="-551" y="-582"/>
      <point x="-390" y="-729"/>
      <point x="-196" y="-729" type="curve" smooth="yes"/>
      <point x="-53" y="-729"/>
      <point x="42" y="-649"/>
      <point x="42" y="-575" type="curve" smooth="yes"/>
      <point x="42" y="-511"/>
      <point x="-30" y="-460"/>
      <point x="-96" y="-437" type="curve"/>
      <point x="-153" y="-523"/>
      <point x="-241" y="-561"/>
      <point x="-298" y="-561" type="curve" smooth="yes"/>
      <point x="-334" y="-561"/>
      <point x="-352" y="-546"/>
      <point x="-352" y="-517" type="curve" smooth="yes"/>
      <point x="-352" y="-473"/>
      <point x="-311" y="-421"/>
      <point x="-122" y="-341" type="curve"/>
      <point x="-116" y="-312" type="line"/>
      <point x="-251" y="-184" type="line"/>
      <point x="-350" y="-249"/>
      <point x="-396" y="-278"/>
      <point x="-431" y="-278" type="curve" smooth="yes"/>
      <point x="-452" y="-278"/>
      <point x="-465" y="-267"/>
      <point x="-465" y="-244" type="curve" smooth="yes"/>
      <point x="-465" y="-196"/>
      <point x="-428" y="-121"/>
      <point x="-187" y="-59" type="curve"/>
      <point x="-187" y="-32" type="line"/>
      <point x="-373" y="91" type="line"/>
    </contour>
  </outline>
</glyph>
<glyph name="eShortMatra-deva" format="1">
  <advance width="0"/>
  <unicode hex="0946"/>
  <outline>
    <contour>
      <point x="-410" y="1301" type="line"/>
      <point x="-410" y="1330" type="line"/>
      <point x="-399" y="1358"/>
      <point x="-395" y="1384"/>
      <point x="-395" y="1403" type="curve" smooth="yes"/>
      <point x="-395" y="1461"/>
      <point x="-441" y="1482"/>
      <point x="-628" y="1494" type="curve" smooth="yes"/>
      <point x="-1083" y="1521"/>
      <point x="-1263" y="1687"/>
      <point x="-1263" y="1852" type="curve"/>
      <point x="-1263" y="1896"/>
      <point x="-1253" y="1922"/>
      <point x="-1225" y="1956" type="curve"/>
      <point x="-1144" y="1834"/>
      <point x="-1047" y="1791"/>
      <point x="-729" y="1740" type="curve" smooth="yes"/>
      <point x="-444" y="1696"/>
      <point x="-279" y="1559"/>
      <point x="-196" y="1330" type="curve"/>
      <point x="-196" y="1301" type="line"/>
    </contour>
  </outline>
</glyph>
<glyph name="aiMatra-deva" format="1">
  <advance width="0"/>
  <unicode hex="0948"/>
  <outline>
    <contour>
      <point x="-442" y="1330" type="line"/>
      <point x="-584" y="1436"/>
      <point x="-722" y="1497"/>
      <point x="-799" y="1497" type="curve" smooth="yes"/>
      <point x="-864" y="1497"/>
      <point x="-908" y="1470"/>
      <point x="-933" y="1424" type="curve"/>
      <point x="-1068" y="1463"/>
      <point x="-1129" y="1534"/>
      <point x="-1129" y="1612" type="curve" smooth="yes"/>
      <point x="-1129" y="1700"/>
      <point x="-1051" y="1742"/>
      <point x="-972" y="1742" type="curve" smooth="yes"/>
      <point x="-834" y="1742"/>
      <point x="-589" y="1613"/>
      <point x="-341" y="1401" type="curve"/>
      <point x="-348" y="1363" type="line"/>
      <point x="-476" y="1707"/>
      <point x="-532" y="1774"/>
      <point x="-595" y="1774" type="curve" smooth="yes"/>
      <point x="-631" y="1774"/>
      <point x="-661" y="1755"/>
      <point x="-682" y="1731" type="curve"/>
      <point x="-808" y="1781"/>
      <point x="-855" y="1849"/>
      <point x="-855" y="1911" type="curve" smooth="yes"/>
      <point x="-855" y="1973"/>
      <point x="-809" y="2032"/>
      <point x="-707" y="2032" type="curve" smooth="yes"/>
      <point x="-529" y="2032"/>
      <point x="-362" y="1854"/>
      <point x="-201" y="1330" type="curve"/>
      <point x="-201" y="1249" type="line"/>
      <point x="-442" y="1249" type="line"/>
    </contour>
  </outline>
</glyph>
<glyph name="halant-deva" format="1">
  <advance width="0"/>
  <unicode hex="094D"/>
  <outline>
    <contour>
      <point x="-562" y="-282"/>
      <point x="-598" y="-237"/>
      <point x="-598" y="-182" type="curve"/>
      <point x="-598" y="-127"/>
      <point x="-548" y="-92"/>
      <point x="-440" y="-92" type="curve" smooth="yes"/>
      <point x="-399" y="-92"/>
      <point x="-326" y="-96"/>
      <point x="-208" y="-160" type="curve" smooth="yes"/>
      <point x="-9" y="-268"/>
      <point x="148" y="-451"/>
      <point x="148" y="-507" type="curve" smooth="yes"/>
      <point x="148" y="-525"/>
      <point x="132" y="-555"/>
      <point x="87" y="-569" type="curve"/>
      <point x="-106" y="-367"/>
      <point x="-230" y="-327"/>
      <point x="-349" y="-327" type="curve" smooth="yes"/>
      <point x="-395" y="-327"/>
      <point x="-447" y="-333"/>
      <point x="-481" y="-338" type="curve"/>
    </contour>
  </outline>
</glyph>
<glyph name="om-deva" format="1">
  <advance width="653"/>
  <unicode hex="0950"/>
  <outline>
    <contour>
      <point x="227" y="1926"/>
      <point x="63" y="1782"/>
      <point x="63" y="1589" type="curve" smooth="yes"/>
      <point x="63" y="1495"/>
      <point x="103" y="1408"/>
      <point x="166" y="1340" type="curve"/>
      <point x="162" y="1330" type="line"/>
      <point x="-36" y="1330" type="line"/>
      <point x="-53" y="1307" type="line"/>
      <point x="0" y="1137" type="line"/>
      <point x="206" y="1137" type="line"/>
      <point x="206" y="-21" type="line"/>
      <point x="424" y="-57" type="line"/>
      <point x="446" y="-39" type="line"/>
      <point x="446" y="1137" type="line"/>
      <point x="689" y="1137" type="line"/>
      <point x="706" y="1160" type="line"/>
      <point x="653" y="1330" type="line"/>
      <point x="348.822" y="1330" type="line"/>
      <point x="309.025" y="1375.83"/>
      <point x="289" y="1427.41"/>
      <point x="289" y="1485" type="curve" smooth="yes"/>
      <point x="289" y="1605"/>
      <point x="386" y="1696"/>
      <point x="611" y="1696" type="curve" smooth="yes"/>
      <point x="890" y="1696"/>
      <point x="1218" y="1567"/>
      <point x="1449" y="1382" type="curve"/>
      <point x="1481" y="1388"/>
      <point x="1502" y="1421"/>
      <point x="1502" y="1446" type="curve" smooth="yes"/>
      <point x="1502" y="1569"/>
      <point x="982" y="1926"/>
      <point x="498" y="1926" type="curve" smooth="yes"/>
    </contour>
  </outline>
</glyph>
<glyph name="anudatta-deva" format="1">
  <advance width="0"/>
  <unicode hex="0952"/>
  <outline>
    <contour>
      <point x="-828" y="-180" type="line"/>
      <point x="-778" y="-333" type="line"/>
      <point x="-128" y="-333" type="line"/>
      <point x="-178" y="-180" type="line"/>
    </contour>
  </outline>
</glyph>
<glyph name="grave-deva" format="1">
  <advance width="0"/>
  <unicode hex="0953"/>
  <outline>
    <contour>
      <point x="-693" y="1870" type="line"/>
      <point x="-383" y="1457" type="line"/>
      <point x="-208" y="1517" type="line"/>
      <point x="-518" y="1930" type="line"/>
    </contour>
  </outline>
</glyph>
<glyph name="acute-deva" format="1">
  <advance width="0"/>
  <unicode hex="0954"/>
  <outline>
    <contour>
      <point x="-98" y="1930" type="line"/>
      <point x="-408" y="1517" type="line"/>
      <point x="-233" y="1457" type="line"/>
      <point x="77" y="1870" type="line"/>
    </contour>
  </outline>
</glyph>
<glyph name="rrVocalic-deva" format="1">
  <advance width="1771"/>
  <unicode hex="0960"/>
  <outline>
    <contour>
      <point x="-35.9999" y="1330" type="line"/>
      <point x="-52.9999" y="1307" type="line"/>
      <point x="0" y="1137" type="line"/>
      <point x="794" y="1137" type="line"/>
      <point x="794" y="771" type="line"/>
      <point x="784" y="766" type="line"/>
      <point x="526" y="970"/>
      <point x="432" y="1019"/>
      <point x="323" y="1019" type="curve" smooth="yes"/>
      <point x="175" y="1019"/>
      <point x="94" y="931"/>
      <point x="94" y="859" type="curve" smooth="yes"/>
      <point x="94" y="787"/>
      <point x="162" y="723"/>
      <point x="274" y="665" type="curve"/>
      <point x="324" y="731"/>
      <point x="403" y="779"/>
      <point x="476" y="779" type="curve" smooth="yes"/>
      <point x="525.654" y="779"/>
      <point x="560.912" y="774.201"/>
      <point x="711.812" y="667.658" type="curve"/>
      <point x="534.286" y="550.83"/>
      <point x="376.088" y="424.872"/>
      <point x="231" y="296" type="curve"/>
      <point x="231" y="268" type="line"/>
      <point x="428" y="98" type="line"/>
      <point x="540" y="201"/>
      <point x="657" y="302"/>
      <point x="784" y="398" type="curve"/>
      <point x="794" y="393" type="line"/>
      <point x="794" y="-20.9999" type="line"/>
      <point x="1012" y="-56.9999" type="line"/>
      <point x="1034" y="-38.9999" type="line"/>
      <point x="1034" y="506.759" type="line"/>
      <point x="1153.26" y="511.783"/>
      <point x="1264.2" y="541.472"/>
      <point x="1352.94" y="586.457" type="curve"/>
      <point x="1382.86" y="527.753" type="line"/>
      <point x="1250.57" y="448.855"/>
      <point x="1186" y="376.725"/>
      <point x="1186" y="291" type="curve" smooth="yes"/>
      <point x="1186" y="143"/>
      <point x="1381" y="-70"/>
      <point x="1591" y="-70" type="curve" smooth="yes"/>
      <point x="1722" y="-70"/>
      <point x="1826" y="13"/>
      <point x="1826" y="97" type="curve" smooth="yes"/>
      <point x="1826" y="179"/>
      <point x="1725" y="250"/>
      <point x="1661" y="267" type="curve"/>
      <point x="1610" y="170"/>
      <point x="1499" y="118"/>
      <point x="1434" y="118" type="curve" smooth="yes"/>
      <point x="1400" y="118"/>
      <point x="1385" y="132"/>
      <point x="1385" y="162" type="curve" smooth="yes"/>
      <point x="1385" y="218"/>
      <point x="1436" y="278"/>
      <point x="1609" y="381" type="curve"/>
      <point x="1562.75" y="464.401"/>
      <point x="1515.35" y="555.275"/>
      <point x="1464.62" y="661.467" type="curve"/>
      <point x="1522.74" y="713.775"/>
      <point x="1557" y="774.958"/>
      <point x="1557" y="838" type="curve" smooth="yes"/>
      <point x="1557" y="945"/>
      <point x="1457" y="1055"/>
      <point x="1332" y="1055" type="curve" smooth="yes"/>
      <point x="1232" y="1055"/>
      <point x="1193" y="985"/>
      <point x="1193" y="934" type="curve" smooth="yes"/>
      <point x="1193" y="895.222"/>
      <point x="1201.49" y="859.676"/>
      <point x="1235.42" y="807.582" type="curve"/>
      <point x="1175.39" y="766.507"/>
      <point x="1109.5" y="739.256"/>
      <point x="1034" y="724.234" type="curve"/>
      <point x="1034" y="1137" type="line"/>
      <point x="1807" y="1137" type="line"/>
      <point x="1824" y="1160" type="line"/>
      <point x="1771" y="1330" type="line"/>
    </contour>
  </outline>
</glyph>
<glyph name="llVocalic-deva" format="1">
  <advance width="1513"/>
  <unicode hex="0961"/>
  <outline>
    <contour>
      <point x="1513" y="1330" type="line"/>
      <point x="1573" y="1137" type="line"/>
      <point x="0" y="1137" type="line"/>
      <point x="-60" y="1330" type="line"/>
    </contour>
    <contour>
      <point x="1154" y="1243" type="line"/>
      <point x="1154" y="809" type="line"/>
      <point x="924" y="849" type="line"/>
      <point x="924" y="1243" type="line"/>
    </contour>
    <contour>
      <point x="681" y="-47"/>
      <point x="645" y="-68"/>
      <point x="604" y="-68" type="curve" smooth="yes"/>
      <point x="426" y="-68"/>
      <point x="102" y="327"/>
      <point x="102" y="612" type="curve" smooth="yes"/>
      <point x="102" y="775"/>
      <point x="208" y="904"/>
      <point x="383" y="904" type="curve"/>
      <point x="529" y="904"/>
      <point x="665" y="827"/>
      <point x="838" y="613" type="curve"/>
      <point x="768" y="518" type="line"/>
      <point x="676" y="636"/>
      <point x="592" y="688"/>
      <point x="501" y="688" type="curve"/>
      <point x="407" y="688"/>
      <point x="338" y="605"/>
      <point x="338" y="496" type="curve" smooth="yes"/>
      <point x="338" y="350"/>
      <point x="461" y="158"/>
      <point x="691" y="14" type="curve"/>
    </contour>
    <contour>
      <point x="1500" y="-199"/>
      <point x="1573" y="-252"/>
      <point x="1573" y="-317" type="curve" smooth="yes"/>
      <point x="1573" y="-393"/>
      <point x="1474" y="-467"/>
      <point x="1333" y="-467" type="curve" smooth="yes"/>
      <point x="1136" y="-467"/>
      <point x="969" y="-321"/>
      <point x="969" y="-185" type="curve" smooth="yes"/>
      <point x="969" y="-138"/>
      <point x="989" y="-101"/>
      <point x="1055" y="-54" type="curve"/>
      <point x="1128" y="-164" type="line"/>
      <point x="959" y="-117"/>
      <point x="836" y="-24"/>
      <point x="836" y="104" type="curve" smooth="yes"/>
      <point x="836" y="191"/>
      <point x="893" y="253"/>
      <point x="1017" y="364" type="curve" smooth="yes"/>
      <point x="1131" y="467"/>
      <point x="1198" y="518"/>
      <point x="1198" y="597" type="curve" smooth="yes"/>
      <point x="1198" y="650"/>
      <point x="1167" y="671"/>
      <point x="1117" y="671" type="curve" smooth="yes"/>
      <point x="1015" y="671"/>
      <point x="883" y="586"/>
      <point x="788" y="353" type="curve"/>
      <point x="568" y="502" type="line"/>
      <point x="665" y="768"/>
      <point x="839" y="889"/>
      <point x="999" y="889" type="curve" smooth="yes"/>
      <point x="1194" y="889"/>
      <point x="1400" y="707"/>
      <point x="1400" y="490" type="curve" smooth="yes"/>
      <point x="1400" y="395"/>
      <point x="1361" y="345"/>
      <point x="1260" y="259" type="curve" smooth="yes"/>
      <point x="1170" y="182"/>
      <point x="1055" y="99"/>
      <point x="1055" y="40" type="curve" smooth="yes"/>
      <point x="1055" y="23"/>
      <point x="1064" y="6"/>
      <point x="1092" y="6" type="curve" smooth="yes"/>
      <point x="1127" y="6"/>
      <point x="1183" y="32"/>
      <point x="1269" y="86" type="curve"/>
      <point x="1433" y="-70" type="line"/>
      <point x="1197" y="-169"/>
      <point x="1152" y="-230"/>
      <point x="1152" y="-271" type="curve" smooth="yes"/>
      <point x="1152" y="-296"/>
      <point x="1169" y="-310"/>
      <point x="1203" y="-310" type="curve" smooth="yes"/>
      <point x="1265" y="-310"/>
      <point x="1380" y="-265"/>
      <point x="1434" y="-177" type="curve"/>
    </contour>
  </outline>
</glyph>
<glyph name="lVocalicMatra-deva" format="1">
  <advance width="0"/>
  <unicode hex="0962"/>
  <outline>
    <contour>
      <point x="-531" y="-652"/>
      <point x="-567" y="-677"/>
      <point x="-597" y="-677" type="curve" smooth="yes"/>
      <point x="-684" y="-677"/>
      <point x="-928" y="-464"/>
      <point x="-928" y="-258" type="curve" smooth="yes"/>
      <point x="-928" y="-148"/>
      <point x="-858" y="-70"/>
      <point x="-743" y="-70" type="curve"/>
      <point x="-640" y="-70"/>
      <point x="-544" y="-122"/>
      <point x="-420" y="-264" type="curve"/>
      <point x="-472" y="-330" type="line"/>
      <point x="-532" y="-251"/>
      <point x="-588" y="-215"/>
      <point x="-647" y="-215" type="curve"/>
      <point x="-713" y="-215"/>
      <point x="-761" y="-264"/>
      <point x="-761" y="-328" type="curve" smooth="yes"/>
      <point x="-761" y="-416"/>
      <point x="-669" y="-531"/>
      <point x="-522" y="-611" type="curve"/>
    </contour>
    <contour>
      <point x="-37" y="-736"/>
      <point x="-100" y="-792"/>
      <point x="-194" y="-792" type="curve" smooth="yes"/>
      <point x="-322" y="-792"/>
      <point x="-442" y="-687"/>
      <point x="-442" y="-598" type="curve" smooth="yes"/>
      <point x="-442" y="-547"/>
      <point x="-403" y="-498"/>
      <point x="-341" y="-431" type="curve" smooth="yes"/>
      <point x="-295" y="-381"/>
      <point x="-239" y="-326"/>
      <point x="-239" y="-270" type="curve" smooth="yes"/>
      <point x="-239" y="-237"/>
      <point x="-259" y="-215"/>
      <point x="-296" y="-215" type="curve" smooth="yes"/>
      <point x="-349" y="-215"/>
      <point x="-443" y="-260"/>
      <point x="-470" y="-465" type="curve"/>
      <point x="-627" y="-380" type="line"/>
      <point x="-593" y="-140"/>
      <point x="-461" y="-80"/>
      <point x="-361" y="-80" type="curve" smooth="yes"/>
      <point x="-226" y="-80"/>
      <point x="-92" y="-190"/>
      <point x="-92" y="-342" type="curve" smooth="yes"/>
      <point x="-92" y="-415"/>
      <point x="-123" y="-461"/>
      <point x="-167" y="-508" type="curve" smooth="yes"/>
      <point x="-233" y="-577"/>
      <point x="-287" y="-604"/>
      <point x="-287" y="-636" type="curve" smooth="yes"/>
      <point x="-287" y="-651"/>
      <point x="-274" y="-658"/>
      <point x="-253" y="-658" type="curve" smooth="yes"/>
      <point x="-209" y="-658"/>
      <point x="-140" y="-629"/>
      <point x="-105" y="-570" type="curve"/>
      <point x="-76" y="-583"/>
      <point x="-37" y="-627"/>
      <point x="-37" y="-680" type="curve"/>
    </contour>
  </outline>
</glyph>
<glyph name="llVocalicMatra-deva" format="1">
  <advance width="0"/>
  <unicode hex="0963"/>
  <outline>
    <contour>
      <point x="-481" y="-642"/>
      <point x="-517" y="-667"/>
      <point x="-547" y="-667" type="curve" smooth="yes"/>
      <point x="-634" y="-667"/>
      <point x="-878" y="-460"/>
      <point x="-878" y="-257" type="curve" smooth="yes"/>
      <point x="-878" y="-149"/>
      <point x="-808" y="-70"/>
      <point x="-693" y="-70" type="curve"/>
      <point x="-590" y="-70"/>
      <point x="-494" y="-122"/>
      <point x="-370" y="-264" type="curve"/>
      <point x="-422" y="-330" type="line"/>
      <point x="-482" y="-251"/>
      <point x="-538" y="-215"/>
      <point x="-597" y="-215" type="curve"/>
      <point x="-663" y="-215"/>
      <point x="-711" y="-264"/>
      <point x="-711" y="-327" type="curve" smooth="yes"/>
      <point x="-711" y="-412"/>
      <point x="-622" y="-522"/>
      <point x="-472" y="-601" type="curve"/>
    </contour>
    <contour>
      <point x="-402" y="-527"/>
      <point x="-389" y="-485"/>
      <point x="-302" y="-410" type="curve" smooth="yes"/>
      <point x="-239" y="-355"/>
      <point x="-192" y="-317"/>
      <point x="-192" y="-264" type="curve" smooth="yes"/>
      <point x="-192" y="-232"/>
      <point x="-209" y="-216"/>
      <point x="-240" y="-216" type="curve" smooth="yes"/>
      <point x="-290" y="-216"/>
      <point x="-390" y="-258"/>
      <point x="-420" y="-464" type="curve"/>
      <point x="-577" y="-380" type="line"/>
      <point x="-543" y="-138"/>
      <point x="-408" y="-80"/>
      <point x="-312" y="-80" type="curve" smooth="yes"/>
      <point x="-179" y="-80"/>
      <point x="-42" y="-191"/>
      <point x="-42" y="-336" type="curve" smooth="yes"/>
      <point x="-42" y="-413"/>
      <point x="-81" y="-456"/>
      <point x="-128" y="-494" type="curve" smooth="yes"/>
      <point x="-199" y="-552"/>
      <point x="-257" y="-574"/>
      <point x="-257" y="-612" type="curve"/>
      <point x="-257" y="-623"/>
      <point x="-249" y="-630"/>
      <point x="-235" y="-630" type="curve" smooth="yes"/>
      <point x="-209" y="-630"/>
      <point x="-167" y="-608"/>
      <point x="-113" y="-572" type="curve"/>
      <point x="-35" y="-688" type="line"/>
      <point x="-174" y="-747"/>
      <point x="-198" y="-788"/>
      <point x="-198" y="-814" type="curve" smooth="yes"/>
      <point x="-198" y="-833"/>
      <point x="-185" y="-842"/>
      <point x="-162" y="-842" type="curve" smooth="yes"/>
      <point x="-124" y="-842"/>
      <point x="-58" y="-816"/>
      <point x="-27" y="-762" type="curve"/>
      <point x="35" y="-784"/>
      <point x="73" y="-821"/>
      <point x="73" y="-859" type="curve" smooth="yes"/>
      <point x="73" y="-907"/>
      <point x="11" y="-956"/>
      <point x="-79" y="-956" type="curve" smooth="yes"/>
      <point x="-214" y="-956"/>
      <point x="-326" y="-846"/>
      <point x="-326" y="-766" type="curve" smooth="yes"/>
      <point x="-326" y="-734"/>
      <point x="-308" y="-705"/>
      <point x="-252" y="-673" type="curve"/>
      <point x="-213" y="-737" type="line"/>
      <point x="-309" y="-717"/>
      <point x="-402" y="-640"/>
      <point x="-402" y="-569" type="curve"/>
    </contour>
  </outline>
</glyph>
<glyph name="abbreviation-deva" format="1">
  <advance width="1481"/>
  <unicode hex="0970"/>
  <outline>
    <contour>
      <point x="-36" y="1330" type="line"/>
      <point x="-53" y="1307" type="line"/>
      <point x="0" y="1137" type="line"/>
      <point x="922" y="1137" type="line"/>
      <point x="922" y="1004.42" type="line"/>
      <point x="838.025" y="982.972"/>
      <point x="775" y="910.531"/>
      <point x="775" y="809" type="curve" smooth="yes"/>
      <point x="775" y="685.791"/>
      <point x="867.868" y="565.355"/>
      <point x="1018.41" y="425.766" type="curve"/>
      <point x="922.743" y="296.949"/>
      <point x="776.418" y="198"/>
      <point x="623" y="198" type="curve" smooth="yes"/>
      <point x="524" y="198"/>
      <point x="471" y="251"/>
      <point x="471" y="318" type="curve" smooth="yes"/>
      <point x="471" y="404"/>
      <point x="553" y="506"/>
      <point x="735" y="536" type="curve"/>
      <point x="744" y="562" type="line"/>
      <point x="586" y="728" type="line"/>
      <point x="507.173" y="720.572"/>
      <point x="439.418" y="695.429"/>
      <point x="387.021" y="657.071" type="curve"/>
      <point x="349.513" y="680.721"/>
      <point x="332" y="709.208"/>
      <point x="332" y="744" type="curve" smooth="yes"/>
      <point x="332" y="827"/>
      <point x="428" y="897"/>
      <point x="624" y="897" type="curve"/>
      <point x="578" y="985"/>
      <point x="477" y="1075"/>
      <point x="350" y="1075" type="curve" smooth="yes"/>
      <point x="230" y="1075"/>
      <point x="117" y="994"/>
      <point x="117" y="864" type="curve" smooth="yes"/>
      <point x="117" y="751.358"/>
      <point x="201.881" y="647.864"/>
      <point x="313.302" y="579.608" type="curve"/>
      <point x="284.658" y="535.246"/>
      <point x="269" y="483.108"/>
      <point x="269" y="426" type="curve" smooth="yes"/>
      <point x="269" y="207"/>
      <point x="500" y="11"/>
      <point x="750" y="11" type="curve" smooth="yes"/>
      <point x="931.178" y="11"/>
      <point x="1097.34" y="113.972"/>
      <point x="1201.66" y="264.117" type="curve"/>
      <point x="1241.51" y="225.94"/>
      <point x="1258" y="198.214"/>
      <point x="1258" y="154" type="curve" smooth="yes"/>
      <point x="1258" y="67"/>
      <point x="1195" y="16"/>
      <point x="1081" y="1" type="curve"/>
      <point x="1134" y="-77"/>
      <point x="1223" y="-137"/>
      <point x="1304" y="-137" type="curve" smooth="yes"/>
      <point x="1381" y="-137"/>
      <point x="1451" y="-83"/>
      <point x="1451" y="22" type="curve" smooth="yes"/>
      <point x="1451" y="135.132"/>
      <point x="1369.24" y="238.608"/>
      <point x="1252.73" y="351.539" type="curve"/>
      <point x="1291.76" y="432.397"/>
      <point x="1314" y="522.048"/>
      <point x="1314" y="614" type="curve" smooth="yes"/>
      <point x="1314" y="728.167"/>
      <point x="1250" y="868"/>
      <point x="1142" y="947.605" type="curve"/>
      <point x="1142" y="1137" type="line"/>
      <point x="1517" y="1137" type="line"/>
      <point x="1534" y="1160" type="line"/>
      <point x="1481" y="1330" type="line"/>
    </contour>
    <contour>
      <point x="1108" y="822"/>
      <point x="1130" y="793"/>
      <point x="1130" y="725" type="curve" smooth="yes"/>
      <point x="1130" y="657.542"/>
      <point x="1109.8" y="585.18"/>
      <point x="1074.73" y="516.348" type="curve"/>
      <point x="1010.14" y="578.698"/>
      <point x="975" y="626.645"/>
      <point x="975" y="694" type="curve"/>
      <point x="975" y="766"/>
      <point x="1016" y="822"/>
      <point x="1065" y="822" type="curve" smooth="yes"/>
    </contour>
  </outline>
</glyph>
<glyph name="jja-deva" format="1">
  <advance width="1481"/>
  <unicode hex="097C"/>
  <outline>
    <contour>
      <point x="1294" y="60" type="line"/>
      <point x="1294" y="-93" type="line"/>
      <point x="148" y="-93" type="line"/>
      <point x="98" y="60" type="line"/>
    </contour>
    <component base="ja-deva"/>
  </outline>
</glyph>
<glyph name="rightFacingSvasti" format="1">
  <advance width="653"/>
  <unicode hex="0FD5"/>
  <outline>
    <contour>
      <point x="653" y="1330" type="line"/>
      <point x="382" y="1330" type="line"/>
      <point x="172" y="1789"/>
      <point x="-69" y="1926"/>
      <point x="-293" y="1926" type="curve" smooth="yes"/>
      <point x="-503" y="1926"/>
      <point x="-630" y="1801"/>
      <point x="-630" y="1636" type="curve" smooth="yes"/>
      <point x="-630" y="1510"/>
      <point x="-543" y="1392"/>
      <point x="-362" y="1366" type="curve"/>
      <point x="-385" y="1422"/>
      <point x="-393" y="1471"/>
      <point x="-393" y="1505" type="curve" smooth="yes"/>
      <point x="-393" y="1629"/>
      <point x="-307" y="1713"/>
      <point x="-181" y="1713" type="curve" smooth="yes"/>
      <point x="-46" y="1713"/>
      <point x="96" y="1621"/>
      <point x="227" y="1340" type="curve"/>
      <point x="221" y="1330" type="line"/>
      <point x="-36" y="1330" type="line"/>
      <point x="-53" y="1307" type="line"/>
      <point x="0" y="1137" type="line"/>
      <point x="206" y="1137" type="line"/>
      <point x="206" y="-21" type="line"/>
      <point x="424" y="-57" type="line"/>
      <point x="446" y="-39" type="line"/>
      <point x="446" y="1137" type="line"/>
      <point x="689" y="1137" type="line"/>
      <point x="706" y="1160" type="line"/>
    </contour>
  </outline>
</glyph>
<glyph name="dottedcircle" format="1">
  <advance width="653"/>
  <unicode hex="25CC"/>
  <outline>
    <contour>
      <point x="653" y="1330" type="line"/>
      <point x="391" y="1330" type="line"/>
      <point x="22" y="1796"/>
      <point x="-160" y="1932"/>
      <point x="-346" y="1932" type="curve" smooth="yes"/>
      <point x="-477" y="1932"/>
      <point x="-532" y="1861"/>
      <point x="-532" y="1793" type="curve" smooth="yes"/>
      <point x="-532" y="1711"/>
      <point x="-452" y="1624"/>
      <point x="-333" y="1588" type="curve"/>
      <point x="-306" y="1627"/>
      <point x="-259" y="1658"/>
      <point x="-193" y="1658" type="curve" smooth="yes"/>
      <point x="-98" y="1658"/>
      <point x="-16" y="1608"/>
      <point x="214" y="1340" type="curve"/>
      <point x="210" y="1330" type="line"/>
      <point x="-35.9999" y="1330" type="line"/>
      <point x="-52.9999" y="1307" type="line"/>
      <point x="9.69116e-05" y="1137" type="line"/>
      <point x="206" y="1137" type="line"/>
      <point x="206" y="-21.0001" type="line"/>
      <point x="424" y="-57.0001" type="line"/>
      <point x="446" y="-39.0001" type="line"/>
      <point x="446" y="1137" type="line"/>
      <point x="689" y="1137" type="line"/>
      <point x="706" y="1160" type="line"/>
    </contour>
  </outline>
</glyph>
<glyph name="b-deva" format="1">
  <advance width="681"/>
  <outline>
    <contour>
      <point x="252" y="997"/>
      <point x="89" y="861"/>
      <point x="89" y="657" type="curve" smooth="yes"/>
      <point x="89" y="389"/>
      <point x="368" y="149"/>
      <point x="618" y="149" type="curve" smooth="yes"/>
      <point x="809" y="149"/>
      <point x="946" y="273"/>
      <point x="1018" y="456" type="curve"/>
      <point x="848" y="578" type="line"/>
      <point x="830.76" y="532.548"/>
      <point x="803.386" y="487.403"/>
      <point x="767.624" y="449.302" type="curve"/>
      <point x="496.73" y="773.904" type="line"/>
      <point x="520.328" y="779.842"/>
      <point x="545.566" y="783"/>
      <point x="572" y="783" type="curve" smooth="yes"/>
      <point x="687" y="783"/>
      <point x="795" y="724"/>
      <point x="852" y="632" type="curve"/>
      <point x="981" y="717" type="line"/>
      <point x="869" y="880"/>
      <point x="684" y="997"/>
      <point x="482" y="997" type="curve" smooth="yes"/>
    </contour>
    <contour>
      <point x="640.461" y="364.104" type="line"/>
      <point x="611.41" y="353.796"/>
      <point x="580.146" y="348"/>
      <point x="547" y="348" type="curve" smooth="yes"/>
      <point x="415" y="348"/>
      <point x="318" y="440"/>
      <point x="318" y="560" type="curve" smooth="yes"/>
      <point x="318" y="609.689"/>
      <point x="334.426" y="654.405"/>
      <point x="363.007" y="690.521" type="curve"/>
    </contour>
    <contour>
      <point x="-36" y="1330" type="line"/>
      <point x="-53" y="1307" type="line"/>
      <point x="0" y="1137" type="line"/>
      <point x="766" y="1137" type="line"/>
      <point x="783" y="1160" type="line"/>
      <point x="730" y="1330" type="line"/>
    </contour>
  </outline>
</glyph>
<glyph name="bh-deva" format="1">
  <advance width="947"/>
  <outline>
    <contour>
      <point x="165" y="1387"/>
      <point x="98" y="1305"/>
      <point x="98" y="1193" type="curve" smooth="yes"/>
      <point x="98" y="1019"/>
      <point x="259" y="896"/>
      <point x="369" y="896" type="curve" smooth="yes"/>
      <point x="413" y="896"/>
      <point x="441" y="914"/>
      <point x="459" y="932" type="curve"/>
      <point x="353" y="989"/>
      <point x="318" y="1038"/>
      <point x="318" y="1101" type="curve" smooth="yes"/>
      <point x="318" y="1161"/>
      <point x="350" y="1200"/>
      <point x="408" y="1200" type="curve" smooth="yes"/>
      <point x="480" y="1200"/>
      <point x="497" y="1140"/>
      <point x="497" y="1069" type="curve" smooth="yes"/>
      <point x="497" y="642.346" type="line"/>
      <point x="411.716" y="638.885"/>
      <point x="352" y="619.974"/>
      <point x="352" y="546" type="curve" smooth="yes"/>
      <point x="352" y="400"/>
      <point x="584" y="214"/>
      <point x="677" y="214" type="curve" smooth="yes"/>
      <point x="710" y="214"/>
      <point x="735" y="238"/>
      <point x="735" y="293" type="curve" smooth="yes"/>
      <point x="735" y="438" type="line"/>
      <point x="1247" y="438" type="line"/>
      <point x="1247" y="643" type="line"/>
      <point x="735" y="643" type="line"/>
      <point x="735" y="913" type="line" smooth="yes"/>
      <point x="735" y="1156"/>
      <point x="525" y="1387"/>
      <point x="295" y="1387" type="curve" smooth="yes"/>
    </contour>
    <contour>
      <point x="768" y="1330" type="line"/>
      <point x="751" y="1307" type="line"/>
      <point x="804" y="1137" type="line"/>
      <point x="1029" y="1137" type="line"/>
      <point x="1046" y="1160" type="line"/>
      <point x="993" y="1330" type="line"/>
    </contour>
  </outline>
</glyph>
<glyph name="c-deva" format="1">
  <advance width="845"/>
  <outline>
    <contour>
      <point x="82" y="913" type="line"/>
      <point x="65" y="890" type="line"/>
      <point x="118" y="720" type="line"/>
      <point x="305" y="720" type="line"/>
      <point x="311" y="711" type="line"/>
      <point x="291" y="668"/>
      <point x="279" y="621"/>
      <point x="279" y="571" type="curve" smooth="yes"/>
      <point x="279" y="361"/>
      <point x="484" y="141"/>
      <point x="754" y="141" type="curve" smooth="yes"/>
      <point x="963" y="141"/>
      <point x="1129" y="265"/>
      <point x="1211" y="486" type="curve"/>
      <point x="1014" y="590" type="line"/>
      <point x="961" y="447"/>
      <point x="830" y="331"/>
      <point x="664" y="331" type="curve" smooth="yes"/>
      <point x="548" y="331"/>
      <point x="491" y="388"/>
      <point x="491" y="480" type="curve" smooth="yes"/>
      <point x="491" y="607"/>
      <point x="612" y="720"/>
      <point x="801" y="720" type="curve" smooth="yes"/>
      <point x="832" y="720" type="line"/>
      <point x="849" y="743" type="line"/>
      <point x="796" y="913" type="line"/>
    </contour>
    <contour>
      <point x="-36" y="1330" type="line"/>
      <point x="-53" y="1307" type="line"/>
      <point x="0" y="1137" type="line"/>
      <point x="927" y="1137" type="line"/>
      <point x="944" y="1160" type="line"/>
      <point x="891" y="1330" type="line"/>
    </contour>
  </outline>
</glyph>
<glyph name="g-deva" format="1">
  <advance width="694"/>
  <outline>
    <contour>
      <point x="-36" y="1330" type="line"/>
      <point x="-53" y="1307" type="line"/>
      <point x="0" y="1137" type="line"/>
      <point x="284" y="1137" type="line"/>
      <point x="284" y="646" type="line"/>
      <point x="169" y="646" type="line" smooth="yes"/>
      <point x="99" y="646"/>
      <point x="70" y="619"/>
      <point x="70" y="573" type="curve" smooth="yes"/>
      <point x="70" y="487"/>
      <point x="268" y="273"/>
      <point x="391" y="273" type="curve" smooth="yes"/>
      <point x="479" y="273"/>
      <point x="519" y="314"/>
      <point x="519" y="484" type="curve" smooth="yes"/>
      <point x="519" y="1137" type="line"/>
      <point x="857" y="1137" type="line"/>
      <point x="874" y="1160" type="line"/>
      <point x="821" y="1330" type="line"/>
    </contour>
  </outline>
</glyph>
<glyph name="gh-deva" format="1">
  <advance width="758"/>
  <outline>
    <contour>
      <point x="821" y="1330" type="line"/>
      <point x="881" y="1137" type="line"/>
      <point x="0" y="1137" type="line"/>
      <point x="-60" y="1330" type="line"/>
    </contour>
    <contour>
      <point x="209" y="772"/>
      <point x="96" y="897"/>
      <point x="96" y="1062" type="curve" smooth="yes"/>
      <point x="96" y="1170"/>
      <point x="145" y="1241"/>
      <point x="280" y="1299" type="curve"/>
      <point x="544" y="1137" type="line"/>
      <point x="413" y="1137"/>
      <point x="332" y="1047"/>
      <point x="332" y="950" type="curve" smooth="yes"/>
      <point x="332" y="880"/>
      <point x="374" y="816"/>
      <point x="489" y="756" type="curve"/>
      <point x="387" y="676" type="line"/>
    </contour>
    <contour>
      <point x="1085" y="339" type="line"/>
      <point x="1026" y="225"/>
      <point x="879" y="141"/>
      <point x="718" y="141" type="curve" smooth="yes"/>
      <point x="458" y="141"/>
      <point x="259" y="359"/>
      <point x="259" y="563" type="curve" smooth="yes"/>
      <point x="259" y="729"/>
      <point x="390" y="872"/>
      <point x="586" y="918" type="curve"/>
      <point x="775" y="730" type="line"/>
      <point x="568" y="681"/>
      <point x="461" y="569"/>
      <point x="461" y="472" type="curve"/>
      <point x="461" y="390"/>
      <point x="515" y="341"/>
      <point x="613" y="341" type="curve" smooth="yes"/>
      <point x="734" y="341"/>
      <point x="881" y="417"/>
      <point x="934" y="570" type="curve"/>
    </contour>
  </outline>
</glyph>
<glyph name="j-deva" format="1">
  <advance width="902"/>
  <outline>
    <contour>
      <point x="981" y="1330" type="line"/>
      <point x="1041" y="1137" type="line"/>
      <point x="0" y="1137" type="line"/>
      <point x="-60" y="1330" type="line"/>
    </contour>
    <contour>
      <point x="1142" y="893" type="line"/>
      <point x="1202" y="700" type="line"/>
      <point x="494" y="700" type="line"/>
      <point x="434" y="893" type="line"/>
    </contour>
    <contour>
      <point x="654" y="822" type="line"/>
      <point x="811" y="724"/>
      <point x="912" y="576"/>
      <point x="912" y="411" type="curve"/>
      <point x="912" y="236"/>
      <point x="777" y="119"/>
      <point x="610" y="119" type="curve"/>
      <point x="245" y="119"/>
      <point x="94" y="596"/>
      <point x="90" y="781" type="curve" smooth="yes"/>
      <point x="88" y="865"/>
      <point x="119" y="905"/>
      <point x="211" y="913" type="curve"/>
      <point x="269" y="525"/>
      <point x="381" y="369"/>
      <point x="531" y="369" type="curve" smooth="yes"/>
      <point x="621" y="369"/>
      <point x="698" y="425"/>
      <point x="698" y="525" type="curve"/>
      <point x="698" y="615"/>
      <point x="625" y="700"/>
      <point x="514" y="700" type="curve"/>
    </contour>
  </outline>
</glyph>
<glyph name="jh-deva" format="1">
  <advance width="1035"/>
  <outline>
    <contour>
      <point x="-36" y="1330" type="line"/>
      <point x="-53" y="1307" type="line"/>
      <point x="0" y="1137" type="line"/>
      <point x="618" y="1137" type="line"/>
      <point x="618" y="1056" type="line" smooth="yes"/>
      <point x="618" y="1043"/>
      <point x="611" y="1036"/>
      <point x="598" y="1036" type="curve" smooth="yes"/>
      <point x="307" y="1036" type="line" smooth="yes"/>
      <point x="168" y="1036"/>
      <point x="104" y="972"/>
      <point x="104" y="886" type="curve" smooth="yes"/>
      <point x="104" y="737"/>
      <point x="296" y="502"/>
      <point x="500" y="502" type="curve" smooth="yes"/>
      <point x="562" y="502"/>
      <point x="673" y="524"/>
      <point x="713" y="524" type="curve" smooth="yes"/>
      <point x="743" y="524"/>
      <point x="765" y="511"/>
      <point x="765" y="473" type="curve" smooth="yes"/>
      <point x="765" y="393.299"/>
      <point x="665.804" y="305.095"/>
      <point x="472.922" y="300.213" type="curve"/>
      <point x="419.565" y="383.885"/>
      <point x="357.329" y="437"/>
      <point x="273" y="437" type="curve" smooth="yes"/>
      <point x="194" y="437"/>
      <point x="145" y="389"/>
      <point x="145" y="314" type="curve" smooth="yes"/>
      <point x="145" y="203.681"/>
      <point x="249.736" y="98.5626"/>
      <point x="437.442" y="80.5891" type="curve"/>
      <point x="517.781" y="-153.39"/>
      <point x="638.098" y="-233"/>
      <point x="741" y="-233" type="curve" smooth="yes"/>
      <point x="827" y="-233"/>
      <point x="894" y="-178"/>
      <point x="894" y="-94" type="curve" smooth="yes"/>
      <point x="894" y="-67"/>
      <point x="887" y="-39"/>
      <point x="872" y="-7" type="curve"/>
      <point x="842" y="-17"/>
      <point x="816" y="-23"/>
      <point x="773" y="-23" type="curve" smooth="yes"/>
      <point x="685.63" y="-23"/>
      <point x="625.52" y="1.16248"/>
      <point x="574.627" y="80.2106" type="curve"/>
      <point x="793.175" y="93.3838"/>
      <point x="946" y="212.756"/>
      <point x="946" y="373" type="curve" smooth="yes"/>
      <point x="946" y="417"/>
      <point x="935" y="463"/>
      <point x="915" y="508" type="curve"/>
      <point x="923" y="515" type="line"/>
      <point x="975" y="494"/>
      <point x="1027" y="483"/>
      <point x="1077" y="483" type="curve" smooth="yes"/>
      <point x="1200" y="483"/>
      <point x="1328" y="554"/>
      <point x="1415" y="747" type="curve"/>
      <point x="1192" y="857" type="line"/>
      <point x="1137" y="724"/>
      <point x="1051" y="666"/>
      <point x="914" y="666" type="curve" smooth="yes"/>
      <point x="864.183" y="666"/>
      <point x="819.523" y="673.734"/>
      <point x="774.104" y="690.61" type="curve"/>
      <point x="729.259" y="724.232"/>
      <point x="679.778" y="745"/>
      <point x="631" y="745" type="curve" smooth="yes"/>
      <point x="571" y="745"/>
      <point x="431" y="714"/>
      <point x="390" y="714" type="curve" smooth="yes"/>
      <point x="350" y="714"/>
      <point x="326" y="743"/>
      <point x="326" y="780" type="curve" smooth="yes"/>
      <point x="326" y="821"/>
      <point x="354" y="845"/>
      <point x="469" y="845" type="curve" smooth="yes"/>
      <point x="832" y="845" type="line"/>
      <point x="852" y="865" type="line"/>
      <point x="852" y="1137" type="line"/>
      <point x="1112" y="1137" type="line"/>
      <point x="1129" y="1160" type="line"/>
      <point x="1076" y="1330" type="line"/>
    </contour>
  </outline>
</glyph>
<glyph name="k-deva" format="1">
  <advance width="1219"/>
  <outline>
    <contour>
      <point x="-36" y="1330" type="line"/>
      <point x="-53" y="1307" type="line"/>
      <point x="0" y="1137" type="line"/>
      <point x="733" y="1137" type="line"/>
      <point x="733" y="872" type="line"/>
      <point x="723" y="868" type="line"/>
      <point x="631" y="953"/>
      <point x="520" y="987"/>
      <point x="426" y="987" type="curve" smooth="yes"/>
      <point x="239" y="987"/>
      <point x="99" y="852"/>
      <point x="99" y="659" type="curve" smooth="yes"/>
      <point x="99" y="390"/>
      <point x="372" y="149"/>
      <point x="597" y="149" type="curve" smooth="yes"/>
      <point x="637" y="149"/>
      <point x="681" y="157"/>
      <point x="724" y="174" type="curve"/>
      <point x="733" y="168" type="line"/>
      <point x="733" y="-21" type="line"/>
      <point x="951" y="-57" type="line"/>
      <point x="973" y="-39" type="line"/>
      <point x="973" y="395" type="line"/>
      <point x="985" y="561"/>
      <point x="1109" y="691"/>
      <point x="1225" y="691" type="curve" smooth="yes"/>
      <point x="1299" y="691"/>
      <point x="1354" y="629"/>
      <point x="1382" y="533" type="curve"/>
      <point x="1499" y="568" type="line"/>
      <point x="1448" y="761"/>
      <point x="1292" y="902"/>
      <point x="1115" y="902" type="curve" smooth="yes"/>
      <point x="1068" y="902"/>
      <point x="1022" y="889"/>
      <point x="982" y="867" type="curve"/>
      <point x="973" y="873" type="line"/>
      <point x="973" y="1137" type="line"/>
      <point x="1387" y="1137" type="line"/>
      <point x="1404" y="1160" type="line"/>
      <point x="1351" y="1330" type="line"/>
    </contour>
    <contour>
      <point x="653" y="773"/>
      <point x="733" y="685"/>
      <point x="733" y="582" type="curve" smooth="yes"/>
      <point x="733" y="538" type="line" smooth="yes"/>
      <point x="733" y="426"/>
      <point x="633" y="348"/>
      <point x="528" y="348" type="curve" smooth="yes"/>
      <point x="417" y="348"/>
      <point x="334" y="434"/>
      <point x="334" y="553" type="curve" smooth="yes"/>
      <point x="334" y="676"/>
      <point x="422" y="773"/>
      <point x="540" y="773" type="curve" smooth="yes"/>
    </contour>
  </outline>
</glyph>
<glyph name="kh-deva" format="1">
  <advance width="1114"/>
  <outline>
    <contour>
      <point x="-36" y="1330" type="line"/>
      <point x="-53" y="1307" type="line"/>
      <point x="0" y="1137" type="line"/>
      <point x="339.156" y="1137" type="line"/>
      <point x="369.086" y="1058.02"/>
      <point x="383" y="979.788"/>
      <point x="383" y="910" type="curve" smooth="yes"/>
      <point x="383" y="842.012"/>
      <point x="369.894" y="789.789"/>
      <point x="339.543" y="750.847" type="curve"/>
      <point x="291.786" y="770.238"/>
      <point x="246.888" y="779"/>
      <point x="209" y="779" type="curve" smooth="yes"/>
      <point x="126" y="779"/>
      <point x="78" y="738"/>
      <point x="78" y="652" type="curve" smooth="yes"/>
      <point x="78" y="378"/>
      <point x="564" y="-54"/>
      <point x="877" y="-54" type="curve" smooth="yes"/>
      <point x="993" y="-54"/>
      <point x="1046" y="4.99982"/>
      <point x="1063" y="95.9998" type="curve"/>
      <point x="747.656" y="134.579"/>
      <point x="511.794" y="250.532"/>
      <point x="349.516" y="432.648" type="curve"/>
      <point x="537.146" y="489.6"/>
      <point x="597" y="629.769"/>
      <point x="597" y="776" type="curve" smooth="yes"/>
      <point x="597" y="893"/>
      <point x="558" y="1014"/>
      <point x="506" y="1128" type="curve" smooth="yes"/>
      <point x="503" y="1133"/>
      <point x="506" y="1137"/>
      <point x="512" y="1137" type="curve" smooth="yes"/>
      <point x="1192" y="1137" type="line"/>
      <point x="1209" y="1160" type="line"/>
      <point x="1156" y="1330" type="line"/>
    </contour>
    <contour>
      <point x="809" y="986"/>
      <point x="690" y="882"/>
      <point x="690" y="701" type="curve" smooth="yes"/>
      <point x="690" y="453"/>
      <point x="913" y="236"/>
      <point x="1129" y="236" type="curve" smooth="yes"/>
      <point x="1232" y="236"/>
      <point x="1347" y="286"/>
      <point x="1434" y="394" type="curve"/>
      <point x="1270" y="580" type="line"/>
      <point x="1216" y="471"/>
      <point x="1127" y="428"/>
      <point x="1053" y="428" type="curve" smooth="yes"/>
      <point x="952" y="428"/>
      <point x="895" y="507"/>
      <point x="895" y="603" type="curve" smooth="yes"/>
      <point x="895" y="710"/>
      <point x="965" y="785"/>
      <point x="1065" y="785" type="curve" smooth="yes"/>
      <point x="1150" y="785"/>
      <point x="1220" y="730"/>
      <point x="1261" y="629" type="curve"/>
      <point x="1342" y="773" type="line"/>
      <point x="1258" y="904"/>
      <point x="1118" y="986"/>
      <point x="973" y="986" type="curve" smooth="yes"/>
    </contour>
  </outline>
</glyph>
<glyph name="l-deva" format="1">
  <advance width="908"/>
  <outline>
    <contour>
      <point x="941" y="1330" type="line"/>
      <point x="1001" y="1137" type="line"/>
      <point x="-30" y="1137" type="line"/>
      <point x="-90" y="1330" type="line"/>
    </contour>
    <contour>
      <point x="666" y="-50"/>
      <point x="628" y="-78"/>
      <point x="584" y="-78" type="curve" smooth="yes"/>
      <point x="423" y="-78"/>
      <point x="81" y="296"/>
      <point x="81" y="629" type="curve"/>
      <point x="81" y="797"/>
      <point x="183" y="916"/>
      <point x="349" y="916" type="curve"/>
      <point x="528" y="916"/>
      <point x="681" y="797"/>
      <point x="798" y="613" type="curve"/>
      <point x="728" y="478" type="line"/>
      <point x="645" y="638"/>
      <point x="573" y="708"/>
      <point x="491" y="708" type="curve"/>
      <point x="391" y="708"/>
      <point x="318" y="622"/>
      <point x="318" y="506" type="curve" smooth="yes"/>
      <point x="318" y="349"/>
      <point x="452" y="141"/>
      <point x="681" y="-6" type="curve"/>
    </contour>
    <contour>
      <point x="533" y="502" type="line"/>
      <point x="605" y="746"/>
      <point x="800" y="896"/>
      <point x="1065" y="909" type="curve"/>
      <point x="1208" y="730" type="line"/>
      <point x="947" y="714"/>
      <point x="815" y="593"/>
      <point x="753" y="352" type="curve"/>
    </contour>
  </outline>
</glyph>
<glyph name="ll-deva" format="1">
  <advance width="1165"/>
  <outline>
    <contour>
      <point x="1211" y="1330" type="line"/>
      <point x="1271" y="1137" type="line"/>
      <point x="0" y="1137" type="line"/>
      <point x="-60" y="1330" type="line"/>
    </contour>
    <contour>
      <point x="776" y="772"/>
      <point x="831" y="870"/>
      <point x="986" y="870" type="curve" smooth="yes"/>
      <point x="1224" y="870"/>
      <point x="1465" y="636"/>
      <point x="1465" y="383" type="curve" smooth="yes"/>
      <point x="1465" y="200"/>
      <point x="1339" y="62"/>
      <point x="1158" y="62" type="curve" smooth="yes"/>
      <point x="1014" y="62"/>
      <point x="875" y="150"/>
      <point x="731" y="297" type="curve"/>
      <point x="752" y="453" type="line"/>
      <point x="840" y="323"/>
      <point x="934" y="267"/>
      <point x="1026" y="267" type="curve" smooth="yes"/>
      <point x="1155" y="267"/>
      <point x="1241" y="376"/>
      <point x="1241" y="510" type="curve" smooth="yes"/>
      <point x="1241" y="598"/>
      <point x="1204" y="659"/>
      <point x="1122" y="659" type="curve" smooth="yes"/>
      <point x="1027" y="659"/>
      <point x="965" y="577"/>
      <point x="862" y="384" type="curve" smooth="yes"/>
      <point x="770" y="212"/>
      <point x="711" y="72"/>
      <point x="531" y="72" type="curve" smooth="yes"/>
      <point x="299" y="72"/>
      <point x="56" y="305"/>
      <point x="56" y="556" type="curve" smooth="yes"/>
      <point x="56" y="740"/>
      <point x="186" y="880"/>
      <point x="374" y="880" type="curve" smooth="yes"/>
      <point x="527" y="880"/>
      <point x="680" y="788"/>
      <point x="860" y="590" type="curve"/>
      <point x="789" y="494" type="line"/>
      <point x="696" y="611"/>
      <point x="596" y="669"/>
      <point x="500" y="669" type="curve" smooth="yes"/>
      <point x="365" y="669"/>
      <point x="280" y="554"/>
      <point x="280" y="428" type="curve" smooth="yes"/>
      <point x="280" y="337"/>
      <point x="324" y="278"/>
      <point x="405" y="278" type="curve" smooth="yes"/>
      <point x="509" y="278"/>
      <point x="563" y="377"/>
      <point x="660" y="557" type="curve" smooth="yes"/>
    </contour>
  </outline>
</glyph>
<glyph name="m-deva" format="1">
  <advance width="700"/>
  <outline>
    <contour>
      <point x="746" y="1330" type="line"/>
      <point x="806" y="1137" type="line"/>
      <point x="0" y="1137" type="line"/>
      <point x="-60" y="1330" type="line"/>
    </contour>
    <contour>
      <point x="438" y="1270" type="line"/>
      <point x="438" y="533" type="line"/>
      <point x="200" y="573" type="line"/>
      <point x="200" y="1270" type="line"/>
    </contour>
    <contour>
      <point x="1000" y="623" type="line"/>
      <point x="1000" y="418" type="line"/>
      <point x="438" y="418" type="line"/>
      <point x="438" y="273" type="line" smooth="yes"/>
      <point x="438" y="217"/>
      <point x="415" y="194"/>
      <point x="375" y="194" type="curve"/>
      <point x="287" y="194"/>
      <point x="55" y="389"/>
      <point x="55" y="517" type="curve"/>
      <point x="55" y="592"/>
      <point x="90" y="623"/>
      <point x="236" y="623" type="curve"/>
    </contour>
  </outline>
</glyph>
<glyph name="n-deva" format="1">
  <advance width="615"/>
  <outline>
    <contour>
      <point x="681" y="1330" type="line"/>
      <point x="741" y="1137" type="line"/>
      <point x="0" y="1137" type="line"/>
      <point x="-60" y="1330" type="line"/>
    </contour>
    <contour>
      <point x="895" y="833" type="line"/>
      <point x="895" y="628" type="line"/>
      <point x="428" y="628" type="line"/>
      <point x="428" y="473" type="line" smooth="yes"/>
      <point x="428" y="417"/>
      <point x="401" y="394"/>
      <point x="355" y="394" type="curve"/>
      <point x="266" y="394"/>
      <point x="45" y="621"/>
      <point x="45" y="717" type="curve"/>
      <point x="45" y="799"/>
      <point x="82" y="833"/>
      <point x="236" y="833" type="curve"/>
    </contour>
  </outline>
</glyph>
<glyph name="nn-deva" format="1">
  <advance width="1071"/>
  <outline>
    <contour>
      <point x="-36" y="1330" type="line"/>
      <point x="-53" y="1307" type="line"/>
      <point x="0" y="1137" type="line"/>
      <point x="129" y="1137" type="line"/>
      <point x="129" y="725" type="line" smooth="yes"/>
      <point x="129" y="486"/>
      <point x="345" y="281"/>
      <point x="567" y="281" type="curve" smooth="yes"/>
      <point x="736" y="281"/>
      <point x="869" y="398"/>
      <point x="869" y="561" type="curve" smooth="yes"/>
      <point x="869" y="1137" type="line"/>
      <point x="1107" y="1137" type="line"/>
      <point x="1124" y="1160" type="line"/>
      <point x="1071" y="1330" type="line"/>
    </contour>
    <contour>
      <point x="654" y="670" type="line" smooth="yes"/>
      <point x="654" y="537"/>
      <point x="582" y="463"/>
      <point x="486" y="463" type="curve" smooth="yes"/>
      <point x="409" y="463"/>
      <point x="349" y="512"/>
      <point x="349" y="600" type="curve" smooth="yes"/>
      <point x="349" y="1137" type="line"/>
      <point x="654" y="1137" type="line"/>
    </contour>
  </outline>
</glyph>
<glyph name="ny-deva" format="1">
  <advance width="1067"/>
  <outline>
    <contour>
      <point x="404" y="964"/>
      <point x="331" y="885"/>
      <point x="331" y="810" type="curve" smooth="yes"/>
      <point x="331" y="735"/>
      <point x="388" y="656"/>
      <point x="512" y="633" type="curve"/>
      <point x="551" y="699"/>
      <point x="605" y="737"/>
      <point x="676" y="737" type="curve" smooth="yes"/>
      <point x="748" y="737"/>
      <point x="795" y="697"/>
      <point x="795" y="597" type="curve" smooth="yes"/>
      <point x="795" y="463"/>
      <point x="711" y="337"/>
      <point x="546" y="337" type="curve" smooth="yes"/>
      <point x="364" y="337"/>
      <point x="240" y="490"/>
      <point x="183" y="830" type="curve"/>
      <point x="102" y="830"/>
      <point x="80.9999" y="787"/>
      <point x="80.9999" y="713" type="curve" smooth="yes"/>
      <point x="80.9999" y="496"/>
      <point x="266" y="115"/>
      <point x="642" y="115" type="curve" smooth="yes"/>
      <point x="877" y="115"/>
      <point x="994" y="265"/>
      <point x="1003" y="441" type="curve"/>
      <point x="1012" y="446" type="line"/>
      <point x="1062" y="413"/>
      <point x="1114" y="393"/>
      <point x="1171" y="393" type="curve" smooth="yes"/>
      <point x="1290" y="393"/>
      <point x="1384" y="470"/>
      <point x="1448" y="614" type="curve"/>
      <point x="1224" y="757" type="line"/>
      <point x="1184" y="660"/>
      <point x="1120" y="616"/>
      <point x="1034" y="616" type="curve" smooth="yes"/>
      <point x="1011.05" y="616"/>
      <point x="991.415" y="618.389"/>
      <point x="972.827" y="624.86" type="curve"/>
      <point x="902.027" y="815.884"/>
      <point x="717.471" y="964"/>
      <point x="536" y="964" type="curve" smooth="yes"/>
    </contour>
    <contour>
      <point x="-36" y="1330" type="line"/>
      <point x="-53" y="1307" type="line"/>
      <point x="0" y="1137" type="line"/>
      <point x="1137" y="1137" type="line"/>
      <point x="1154" y="1160" type="line"/>
      <point x="1101" y="1330" type="line"/>
    </contour>
  </outline>
</glyph>
<glyph name="p-deva" format="1">
  <advance width="665"/>
  <outline>
    <contour>
      <point x="-36" y="1330" type="line"/>
      <point x="-53" y="1307" type="line"/>
      <point x="0" y="1137" type="line"/>
      <point x="129" y="1137" type="line"/>
      <point x="129" y="725" type="line" smooth="yes"/>
      <point x="129" y="476"/>
      <point x="340" y="261"/>
      <point x="564" y="261" type="curve" smooth="yes"/>
      <point x="744" y="261"/>
      <point x="898" y="380"/>
      <point x="976" y="570" type="curve"/>
      <point x="784" y="700" type="line"/>
      <point x="733" y="553"/>
      <point x="616" y="453"/>
      <point x="498" y="453" type="curve" smooth="yes"/>
      <point x="407" y="453"/>
      <point x="359" y="512"/>
      <point x="359" y="620" type="curve" smooth="yes"/>
      <point x="359" y="1137" type="line"/>
      <point x="707" y="1137" type="line"/>
      <point x="724" y="1160" type="line"/>
      <point x="671" y="1330" type="line"/>
    </contour>
  </outline>
</glyph>
<glyph name="ph-deva" format="1">
  <advance width="1141"/>
  <outline>
    <contour>
      <point x="-29" y="1330" type="line"/>
      <point x="-51" y="1301" type="line"/>
      <point x="0" y="1137" type="line"/>
      <point x="129" y="1137" type="line"/>
      <point x="129" y="715" type="line" smooth="yes"/>
      <point x="129" y="476"/>
      <point x="343" y="271"/>
      <point x="558" y="271" type="curve" smooth="yes"/>
      <point x="597" y="271"/>
      <point x="637" y="278"/>
      <point x="675" y="291" type="curve"/>
      <point x="684" y="285" type="line"/>
      <point x="684" y="-20.9999" type="line"/>
      <point x="889" y="-56.9999" type="line"/>
      <point x="914" y="-34.9999" type="line"/>
      <point x="914" y="478" type="line" smooth="yes"/>
      <point x="914" y="642"/>
      <point x="1031" y="755"/>
      <point x="1152" y="755" type="curve" smooth="yes"/>
      <point x="1245" y="755"/>
      <point x="1323" y="687"/>
      <point x="1364" y="566" type="curve"/>
      <point x="1461" y="601" type="line"/>
      <point x="1410" y="800"/>
      <point x="1239" y="945"/>
      <point x="1069" y="945" type="curve" smooth="yes"/>
      <point x="1017" y="945"/>
      <point x="967" y="933"/>
      <point x="923" y="910" type="curve"/>
      <point x="914" y="916" type="line"/>
      <point x="914" y="1137" type="line"/>
      <point x="1189" y="1137" type="line"/>
      <point x="1211" y="1166" type="line"/>
      <point x="1160" y="1330" type="line"/>
    </contour>
    <contour>
      <point x="684" y="710" type="line" smooth="yes"/>
      <point x="684" y="572"/>
      <point x="565" y="463"/>
      <point x="461" y="463" type="curve" smooth="yes"/>
      <point x="398" y="463"/>
      <point x="369" y="503"/>
      <point x="369" y="590" type="curve" smooth="yes"/>
      <point x="369" y="1137" type="line"/>
      <point x="684" y="1137" type="line"/>
    </contour>
  </outline>
</glyph>
<glyph name="reph-deva" format="1">
  <advance width="0"/>
  <outline>
    <contour>
      <point x="-117" y="1924"/>
      <point x="4" y="1813"/>
      <point x="4" y="1698" type="curve" smooth="yes"/>
      <point x="4" y="1688"/>
      <point x="3" y="1678"/>
      <point x="0" y="1668" type="curve"/>
      <point x="-53" y="1700"/>
      <point x="-115" y="1715"/>
      <point x="-168" y="1715" type="curve" smooth="yes"/>
      <point x="-284" y="1715"/>
      <point x="-349" y="1643"/>
      <point x="-349" y="1545" type="curve" smooth="yes"/>
      <point x="-349" y="1436"/>
      <point x="-270" y="1342"/>
      <point x="-132" y="1266" type="curve"/>
      <point x="-262" y="1214" type="line"/>
      <point x="-436" y="1304"/>
      <point x="-567" y="1479"/>
      <point x="-567" y="1643" type="curve" smooth="yes"/>
      <point x="-567" y="1794"/>
      <point x="-455" y="1924"/>
      <point x="-279" y="1924" type="curve" smooth="yes"/>
    </contour>
  </outline>
</glyph>
<glyph name="s-deva" format="1">
  <advance width="905"/>
  <outline>
    <contour>
      <point x="-36" y="1330" type="line"/>
      <point x="-53" y="1307" type="line"/>
      <point x="0" y="1137" type="line"/>
      <point x="421.438" y="1137" type="line"/>
      <point x="449.794" y="1064.81"/>
      <point x="463" y="993.869"/>
      <point x="463" y="930" type="curve" smooth="yes"/>
      <point x="463" y="842.318"/>
      <point x="438.235" y="779.132"/>
      <point x="380.186" y="735.553" type="curve"/>
      <point x="317.347" y="765.684"/>
      <point x="258.249" y="779"/>
      <point x="213" y="779" type="curve" smooth="yes"/>
      <point x="125" y="779"/>
      <point x="78" y="727"/>
      <point x="78" y="650" type="curve" smooth="yes"/>
      <point x="78" y="430"/>
      <point x="463" y="-42"/>
      <point x="676" y="-42" type="curve" smooth="yes"/>
      <point x="741" y="-42"/>
      <point x="807" y="2"/>
      <point x="823" y="76" type="curve"/>
      <point x="619.856" y="167.374"/>
      <point x="471.956" y="268.732"/>
      <point x="346.176" y="427.86" type="curve"/>
      <point x="442.921" y="449.457"/>
      <point x="515.159" y="485.629"/>
      <point x="567.033" y="532.095" type="curve"/>
      <point x="681.682" y="476.306"/>
      <point x="802.975" y="453"/>
      <point x="895" y="453" type="curve" smooth="yes"/>
      <point x="1012" y="453"/>
      <point x="1113" y="491"/>
      <point x="1205" y="628" type="curve"/>
      <point x="1042" y="827" type="line"/>
      <point x="978" y="694"/>
      <point x="886" y="636"/>
      <point x="747" y="636" type="curve" smooth="yes"/>
      <point x="715.841" y="636"/>
      <point x="682.66" y="638.956"/>
      <point x="648.683" y="646.217" type="curve"/>
      <point x="668.235" y="692.694"/>
      <point x="677" y="743.652"/>
      <point x="677" y="797" type="curve" smooth="yes"/>
      <point x="677" y="906"/>
      <point x="640" y="1021"/>
      <point x="590" y="1128" type="curve"/>
      <point x="596" y="1137" type="line"/>
      <point x="986" y="1137" type="line"/>
      <point x="1003" y="1160" type="line"/>
      <point x="950" y="1330" type="line"/>
    </contour>
  </outline>
</glyph>
<glyph name="sh-deva" format="1">
  <advance width="1011"/>
  <outline>
    <contour>
      <point x="-36" y="1330" type="line"/>
      <point x="-53" y="1307" type="line"/>
      <point x="0" y="1137" type="line"/>
      <point x="241.724" y="1137" type="line"/>
      <point x="239.265" y="1121.06"/>
      <point x="238" y="1104.06"/>
      <point x="238" y="1086" type="curve" smooth="yes"/>
      <point x="238" y="923.729"/>
      <point x="339.773" y="783.834"/>
      <point x="576.434" y="663.861" type="curve"/>
      <point x="533.412" y="616.88"/>
      <point x="479.533" y="575.526"/>
      <point x="414.708" y="543.919" type="curve"/>
      <point x="351.857" y="612.379"/>
      <point x="280.386" y="645"/>
      <point x="212" y="645" type="curve" smooth="yes"/>
      <point x="128" y="645"/>
      <point x="75.9998" y="595"/>
      <point x="75.9998" y="518" type="curve" smooth="yes"/>
      <point x="75.9998" y="404.25"/>
      <point x="191.73" y="312.506"/>
      <point x="379.045" y="297.948" type="curve"/>
      <point x="514.314" y="48.0054"/>
      <point x="670.368" y="-65"/>
      <point x="824" y="-65" type="curve" smooth="yes"/>
      <point x="926" y="-65"/>
      <point x="980" y="-15"/>
      <point x="980" y="62.9997" type="curve" smooth="yes"/>
      <point x="980" y="110"/>
      <point x="961" y="150"/>
      <point x="907" y="211" type="curve"/>
      <point x="859" y="183"/>
      <point x="807" y="165"/>
      <point x="749" y="165" type="curve" smooth="yes"/>
      <point x="672.196" y="165"/>
      <point x="590.13" y="195.704"/>
      <point x="529.914" y="320.382" type="curve"/>
      <point x="821.616" y="428.912"/>
      <point x="927.95" y="663.117"/>
      <point x="925" y="848" type="curve" smooth="yes"/>
      <point x="923" y="953"/>
      <point x="887" y="1050"/>
      <point x="828" y="1127" type="curve"/>
      <point x="833" y="1137" type="line"/>
      <point x="1087" y="1137" type="line"/>
      <point x="1104" y="1160" type="line"/>
      <point x="1051" y="1330" type="line"/>
    </contour>
    <contour>
      <point x="661" y="1145"/>
      <point x="705" y="1101"/>
      <point x="705" y="980" type="curve" smooth="yes"/>
      <point x="705" y="910.514"/>
      <point x="686.672" y="836.57"/>
      <point x="649.814" y="767.427" type="curve"/>
      <point x="520.007" y="836.937"/>
      <point x="468" y="905.509"/>
      <point x="468" y="998" type="curve" smooth="yes"/>
      <point x="468" y="1081"/>
      <point x="512" y="1145"/>
      <point x="589" y="1145" type="curve" smooth="yes"/>
    </contour>
  </outline>
</glyph>
<glyph name="ss-deva" format="1">
  <advance width="665"/>
  <outline>
    <contour>
      <point x="-29" y="1330" type="line"/>
      <point x="-51" y="1301" type="line"/>
      <point x="0" y="1137" type="line"/>
      <point x="129" y="1137" type="line"/>
      <point x="129" y="725" type="line" smooth="yes"/>
      <point x="129" y="476"/>
      <point x="340" y="261"/>
      <point x="564" y="261" type="curve" smooth="yes"/>
      <point x="726" y="261"/>
      <point x="871" y="360"/>
      <point x="974" y="541" type="curve"/>
      <point x="784" y="700" type="line"/>
      <point x="778.386" y="683.818"/>
      <point x="771.972" y="668.205"/>
      <point x="764.845" y="653.233" type="curve"/>
      <point x="413.077" y="1137" type="line"/>
      <point x="700" y="1137" type="line"/>
      <point x="722" y="1166" type="line"/>
      <point x="671" y="1330" type="line"/>
    </contour>
    <contour>
      <point x="678.071" y="532.155" type="line"/>
      <point x="625.166" y="482.168"/>
      <point x="561.729" y="453"/>
      <point x="498" y="453" type="curve" smooth="yes"/>
      <point x="407" y="453"/>
      <point x="359" y="512"/>
      <point x="359" y="620" type="curve" smooth="yes"/>
      <point x="359" y="970.957" type="line"/>
    </contour>
  </outline>
</glyph>
<glyph name="t-deva" format="1">
  <advance width="775"/>
  <outline>
    <contour>
      <point x="416" y="893" type="line" smooth="yes"/>
      <point x="230" y="893"/>
      <point x="136" y="794"/>
      <point x="136" y="620" type="curve" smooth="yes"/>
      <point x="136" y="314"/>
      <point x="425" y="-68"/>
      <point x="586" y="-68" type="curve" smooth="yes"/>
      <point x="623" y="-68"/>
      <point x="653" y="-47"/>
      <point x="663" y="-10" type="curve"/>
      <point x="478" y="139"/>
      <point x="365" y="344"/>
      <point x="365" y="500" type="curve" smooth="yes"/>
      <point x="365" y="607"/>
      <point x="419" y="688"/>
      <point x="568" y="688" type="curve" smooth="yes"/>
      <point x="1075" y="688" type="line"/>
      <point x="1075" y="893" type="line"/>
    </contour>
    <contour>
      <point x="-36" y="1330" type="line"/>
      <point x="-53" y="1307" type="line"/>
      <point x="0" y="1137" type="line"/>
      <point x="837" y="1137" type="line"/>
      <point x="854" y="1160" type="line"/>
      <point x="801" y="1330" type="line"/>
    </contour>
  </outline>
</glyph>
<glyph name="th-deva" format="1">
  <advance width="864"/>
  <outline>
    <contour>
      <point x="182" y="1387"/>
      <point x="78" y="1315"/>
      <point x="78" y="1182" type="curve" smooth="yes"/>
      <point x="78" y="1014"/>
      <point x="244" y="886"/>
      <point x="359" y="886" type="curve" smooth="yes"/>
      <point x="412" y="886"/>
      <point x="443" y="913"/>
      <point x="459" y="932" type="curve"/>
      <point x="351" y="969"/>
      <point x="308" y="1026"/>
      <point x="308" y="1086" type="curve" smooth="yes"/>
      <point x="308" y="1154"/>
      <point x="363" y="1200"/>
      <point x="435" y="1200" type="curve" smooth="yes"/>
      <point x="507" y="1200"/>
      <point x="545" y="1146"/>
      <point x="545" y="1064" type="curve" smooth="yes"/>
      <point x="545" y="909"/>
      <point x="428" y="791"/>
      <point x="163" y="714" type="curve"/>
      <point x="151" y="688" type="line"/>
      <point x="331" y="316"/>
      <point x="601" y="151"/>
      <point x="826" y="151" type="curve" smooth="yes"/>
      <point x="1030" y="151"/>
      <point x="1169" y="286"/>
      <point x="1236" y="525" type="curve"/>
      <point x="1014" y="640" type="line"/>
      <point x="971" y="463"/>
      <point x="834" y="371"/>
      <point x="681" y="371" type="curve" smooth="yes"/>
      <point x="571.004" y="371"/>
      <point x="486.599" y="418.984"/>
      <point x="414.197" y="529.256" type="curve"/>
      <point x="646.698" y="612.208"/>
      <point x="765" y="747.011"/>
      <point x="765" y="923" type="curve" smooth="yes"/>
      <point x="765" y="1166"/>
      <point x="542" y="1387"/>
      <point x="313" y="1387" type="curve" smooth="yes"/>
    </contour>
    <contour>
      <point x="764" y="1330" type="line"/>
      <point x="747" y="1307" type="line"/>
      <point x="800" y="1137" type="line"/>
      <point x="937" y="1137" type="line"/>
      <point x="954" y="1160" type="line"/>
      <point x="901" y="1330" type="line"/>
    </contour>
  </outline>
</glyph>
<glyph name="v-deva" format="1">
  <advance width="681"/>
  <outline>
    <contour>
      <point x="730" y="1330" type="line"/>
      <point x="790" y="1137" type="line"/>
      <point x="0" y="1137" type="line"/>
      <point x="-60" y="1330" type="line"/>
    </contour>
    <contour>
      <point x="852" y="632" type="line"/>
      <point x="795" y="724"/>
      <point x="687" y="783"/>
      <point x="572" y="783" type="curve" smooth="yes"/>
      <point x="427" y="783"/>
      <point x="318" y="688"/>
      <point x="318" y="560" type="curve" smooth="yes"/>
      <point x="318" y="440"/>
      <point x="415" y="348"/>
      <point x="547" y="348" type="curve" smooth="yes"/>
      <point x="694" y="348"/>
      <point x="804" y="462"/>
      <point x="848" y="578" type="curve"/>
      <point x="981" y="386" type="line"/>
      <point x="924" y="242"/>
      <point x="774" y="149"/>
      <point x="618" y="149" type="curve" smooth="yes"/>
      <point x="368" y="149"/>
      <point x="89" y="389"/>
      <point x="89" y="657" type="curve" smooth="yes"/>
      <point x="89" y="861"/>
      <point x="252" y="997"/>
      <point x="482" y="997" type="curve" smooth="yes"/>
      <point x="652" y="997"/>
      <point x="811" y="923"/>
      <point x="924" y="790" type="curve"/>
    </contour>
  </outline>
</glyph>
<glyph name="va-deva.001" format="1">
  <advance width="1230"/>
  <outline>
    <contour>
      <point x="1230" y="1330" type="line"/>
      <point x="1290" y="1137" type="line"/>
      <point x="0" y="1137" type="line"/>
      <point x="-60" y="1330" type="line"/>
    </contour>
    <contour>
      <point x="1043" y="1243" type="line"/>
      <point x="1043" y="-61" type="line"/>
      <point x="813" y="-21" type="line"/>
      <point x="813" y="1243" type="line"/>
    </contour>
    <contour>
      <point x="813" y="632" type="line"/>
      <point x="813" y="705"/>
      <point x="719" y="783"/>
      <point x="582" y="783" type="curve" smooth="yes"/>
      <point x="430" y="783"/>
      <point x="318" y="688"/>
      <point x="318" y="560" type="curve" smooth="yes"/>
      <point x="318" y="440"/>
      <point x="415" y="348"/>
      <point x="549" y="348" type="curve" smooth="yes"/>
      <point x="693" y="348"/>
      <point x="813" y="454"/>
      <point x="813" y="608" type="curve"/>
      <point x="961" y="366" type="line"/>
      <point x="908" y="237"/>
      <point x="763" y="149"/>
      <point x="615" y="149" type="curve" smooth="yes"/>
      <point x="370" y="149"/>
      <point x="89" y="389"/>
      <point x="89" y="656" type="curve" smooth="yes"/>
      <point x="89" y="861"/>
      <point x="254" y="997"/>
      <point x="478" y="997" type="curve" smooth="yes"/>
      <point x="602" y="997"/>
      <point x="745" y="955"/>
      <point x="844" y="860" type="curve"/>
    </contour>
  </outline>
</glyph>
<glyph name="y-deva" format="1">
  <advance width="811"/>
  <outline>
    <contour>
      <point x="848" y="1330" type="line"/>
      <point x="908" y="1137" type="line"/>
      <point x="0" y="1137" type="line"/>
      <point x="-60" y="1330" type="line"/>
    </contour>
    <contour>
      <point x="432" y="465"/>
      <point x="527" y="391"/>
      <point x="647" y="391" type="curve" smooth="yes"/>
      <point x="791" y="391"/>
      <point x="912" y="498"/>
      <point x="961" y="660" type="curve"/>
      <point x="1131" y="449" type="line"/>
      <point x="1079" y="287"/>
      <point x="956" y="171"/>
      <point x="769" y="171" type="curve" smooth="yes"/>
      <point x="547" y="171"/>
      <point x="290" y="336"/>
      <point x="118" y="748" type="curve"/>
      <point x="366" y="611" type="line"/>
    </contour>
    <contour>
      <point x="435" y="1267" type="line"/>
      <point x="547" y="1179"/>
      <point x="642" y="995"/>
      <point x="642" y="858" type="curve" smooth="yes"/>
      <point x="642" y="712"/>
      <point x="534" y="611"/>
      <point x="342" y="553" type="curve"/>
      <point x="118" y="748" type="line"/>
      <point x="349" y="811"/>
      <point x="422" y="890"/>
      <point x="422" y="1013" type="curve" smooth="yes"/>
      <point x="422" y="1107"/>
      <point x="379" y="1190"/>
      <point x="345" y="1230" type="curve"/>
    </contour>
  </outline>
</glyph>
